<?xml version="1.0" encoding="utf-8"?>
<!-- Generator: Adobe Illustrator 17.0.0, SVG Export Plug-In . SVG Version: 6.00 Build 0)  -->
<!DOCTYPE svg PUBLIC "-//W3C//DTD SVG 1.1//EN" "http://www.w3.org/Graphics/SVG/1.1/DTD/svg11.dtd">
<svg version="1.1" id="Layer_3" xmlns="http://www.w3.org/2000/svg" xmlns:xlink="http://www.w3.org/1999/xlink" x="0px" y="0px"
	 width="115px" height="125px" viewBox="0 0 115 125" enable-background="new 0 0 115 125" xml:space="preserve">
<path fill="#FFFFFF" d="M58.258,93.91c-6.493,0.003-12.988,0.079-19.479-0.015c-9.468-0.138-17.05-7.426-17.686-16.879
	c-0.067-0.995-0.158-2.019-0.006-2.993c1.368-8.78-1.192-15.815-8.599-21.137c-1.152-0.828-0.996-3.476-1.444-5.282
	c1.896,0.221,4.727-0.268,5.525,0.785c3.406,4.495,7.832,4.642,12.807,4.6c19.811-0.168,39.626-0.156,59.437,0.003
	c4.055,0.032,7.39-0.485,10.005-3.989c1.483-1.987,3.979-4.037,6.111-1.226c0.712,0.939-0.421,4.552-1.755,5.552
	c-6.972,5.226-9.203,11.897-8.181,20.371c0.83,6.885-1.57,12.993-7.604,16.789c-2.819,1.773-6.357,3.013-9.664,3.271
	C71.272,94.263,64.751,93.907,58.258,93.91z"/>
<path fill="#FFFFFF" d="M23.624,46.132c1.149-7.16,6.302-10.284,11.538-13.041c3.197-1.683,6.773-2.751,10.285-3.699
	c3.43-0.925,6.736-1.01,8.67-5.198c1.539-3.331,7.083-2.803,8.572,0.772c1.313,3.152,3.693,3.101,6.08,4.087
	c6.515,2.692,13.06,5.453,19.148,8.959c2.342,1.349,3.479,4.79,5.736,8.119C69.51,46.132,46.826,46.132,23.624,46.132z"/>
</svg>
