<?xml version="1.0" encoding="utf-8"?>
<!-- Generator: Adobe Illustrator 17.0.0, SVG Export Plug-In . SVG Version: 6.00 Build 0)  -->
<!DOCTYPE svg PUBLIC "-//W3C//DTD SVG 1.1//EN" "http://www.w3.org/Graphics/SVG/1.1/DTD/svg11.dtd">
<svg version="1.1" id="Layer_1" xmlns="http://www.w3.org/2000/svg" xmlns:xlink="http://www.w3.org/1999/xlink" x="0px" y="0px"
	 width="115px" height="125px" viewBox="0 0 115 125" enable-background="new 0 0 115 125" xml:space="preserve">
<path fill="#FFFFFF" d="M71.056,113.039c-10.893,0-21.455,0-31.976,0c-0.841-7.125,0.255-9.011,7.405-11.913
	c-2.008-4.142-3.491-8.589-6.07-12.268c-8.679-12.378-8.411-24.421-0.699-37.233c4.851-8.059,8.406-16.897,12.646-25.598
	c-1.245-1.045-2.304-1.765-3.155-2.678c-2.659-2.852-2.846-6.122-0.386-8.973c2.486-2.881,5.758-3.261,8.871-0.725
	c3.122,2.543,3.149,5.949,0.77,9.292c-1.746,2.454-2.965,5.283-4.419,7.945c0.511,0.3,1.022,0.6,1.534,0.9
	c3.356-3.865,6.712-7.731,10.068-11.596c0.246,0.098,0.492,0.197,0.738,0.295c-1.199,2.045-2.266,4.184-3.632,6.11
	c-1.358,1.916-3.016,3.62-4.543,5.417c0.304,0.337,0.607,0.673,0.911,1.01c4.443-2.481,8.887-4.962,13.33-7.443
	c0.202,0.151,0.403,0.301,0.605,0.452c-3.038,2.543-6.076,5.087-10.316,8.637c5.62-1.326,9.893-2.334,14.167-3.342
	c0.137,0.135,0.275,0.271,0.412,0.406c-1.844,1.016-3.614,2.213-5.55,3.001c-2.248,0.915-4.642,1.471-6.801,2.918
	c4.858,0,9.717,0,14.575,0c0.043,0.285,0.086,0.57,0.129,0.855c-4.856,0.631-9.713,1.262-14.569,1.892
	c0.017,0.404,0.034,0.808,0.051,1.212c5.311,0.722,10.621,1.443,15.932,2.165c-0.026,0.447-0.052,0.893-0.078,1.34
	c-5.157-0.453-10.314-0.906-15.471-1.359c-0.073,0.384-0.147,0.767-0.22,1.151c5.163,1.782,10.325,3.563,15.488,5.345
	c-0.083,0.388-0.165,0.775-0.248,1.163c-5.455-1.526-10.91-3.052-16.365-4.578c-0.176,0.379-0.352,0.759-0.527,1.138
	c4.428,2.539,8.856,5.078,13.284,7.617c-0.134,0.349-0.269,0.699-0.403,1.048c-4.465-1.992-8.93-3.984-13.395-5.976
	c-0.188,0.3-0.376,0.601-0.564,0.901c2.864,3.102,5.727,6.204,8.591,9.306c-0.134,0.234-0.268,0.467-0.401,0.701
	c-2.204-1.463-4.423-2.905-6.609-4.395c-1.906-1.299-2.441-5.312-7.679-2.949c16.597,13.99,16.468,30.027,7.186,47.029
	C70.199,103.693,71.456,105.662,71.056,113.039z M49.045,54.206c-4.565,15.111,0.803,26.935,8.737,38.949
	C63.143,78.097,56.395,66.592,49.045,54.206z"/>
</svg>
