<?xml version="1.0" encoding="utf-8"?>
<!-- Generator: Adobe Illustrator 17.0.0, SVG Export Plug-In . SVG Version: 6.00 Build 0)  -->
<!DOCTYPE svg PUBLIC "-//W3C//DTD SVG 1.1//EN" "http://www.w3.org/Graphics/SVG/1.1/DTD/svg11.dtd">
<svg version="1.1" id="Layer_2" xmlns="http://www.w3.org/2000/svg" xmlns:xlink="http://www.w3.org/1999/xlink" x="0px" y="0px"
	 width="115px" height="125px" viewBox="0 0 115 125" enable-background="new 0 0 115 125" xml:space="preserve">
<path fill="#FFFFFF" d="M40.403,89.659c0,1.403-1.114,2.566-2.459,2.566h-4.918c-1.345,0-2.459-1.163-2.459-2.566v-5.132
	c0-1.403,1.114-2.566,2.459-2.566h4.918c1.345,0,2.459,1.163,2.459,2.566V89.659z M40.403,74.264c0,1.403-1.114,2.566-2.459,2.566
	h-4.918c-1.345,0-2.459-1.163-2.459-2.566v-5.132c0-1.403,1.114-2.566,2.459-2.566h4.918c1.345,0,2.459,1.163,2.459,2.566V74.264z
	 M40.403,58.868c0,1.403-1.114,2.566-2.459,2.566h-4.918c-1.345,0-2.459-1.163-2.459-2.566v-5.132c0-1.403,1.114-2.566,2.459-2.566
	h4.918c1.345,0,2.459,1.163,2.459,2.566V58.868z M69.679,89.659c0,1.403-1.114,2.566-2.459,2.566H47.78
	c-1.345,0-2.459-1.163-2.459-2.566V69.132c0-1.403,1.114-2.566,2.459-2.566h19.44c1.345,0,2.459,1.163,2.459,2.566V89.659z
	 M40.403,43.473c0,1.403-1.114,2.566-2.459,2.566h-4.918c-1.345,0-2.459-1.163-2.459-2.566v-5.132c0-1.403,1.114-2.566,2.459-2.566
	h4.918c1.345,0,2.459,1.163,2.459,2.566V43.473z M84.433,89.659c0,1.403-1.114,2.566-2.459,2.566h-4.918
	c-1.345,0-2.459-1.163-2.459-2.566v-5.132c0-1.403,1.114-2.566,2.459-2.566h4.918c1.345,0,2.459,1.163,2.459,2.566V89.659z
	 M69.679,58.868c0,1.403-1.114,2.566-2.459,2.566H47.78c-1.345,0-2.459-1.163-2.459-2.566V38.341c0-1.403,1.114-2.566,2.459-2.566
	h19.44c1.345,0,2.459,1.163,2.459,2.566V58.868z M84.433,74.264c0,1.403-1.114,2.566-2.459,2.566h-4.918
	c-1.345,0-2.459-1.163-2.459-2.566v-5.132c0-1.403,1.114-2.566,2.459-2.566h4.918c1.345,0,2.459,1.163,2.459,2.566V74.264z
	 M84.433,58.868c0,1.403-1.114,2.566-2.459,2.566h-4.918c-1.345,0-2.459-1.163-2.459-2.566v-5.132c0-1.403,1.114-2.566,2.459-2.566
	h4.918c1.345,0,2.459,1.163,2.459,2.566V58.868z M84.433,43.473c0,1.403-1.114,2.566-2.459,2.566h-4.918
	c-1.345,0-2.459-1.163-2.459-2.566v-5.132c0-1.403,1.114-2.566,2.459-2.566h4.918c1.345,0,2.459,1.163,2.459,2.566V43.473z
	 M89.351,37.058c0-3.528-2.766-6.415-6.147-6.415H31.797c-3.381,0-6.147,2.887-6.147,6.415v53.884c0,3.528,2.766,6.415,6.147,6.415
	h51.406c3.381,0,6.147-2.887,6.147-6.415V37.058z"/>
</svg>
