<?xml version="1.0" encoding="utf-8"?>
<!-- Generator: Adobe Illustrator 17.0.0, SVG Export Plug-In . SVG Version: 6.00 Build 0)  -->
<!DOCTYPE svg PUBLIC "-//W3C//DTD SVG 1.1//EN" "http://www.w3.org/Graphics/SVG/1.1/DTD/svg11.dtd">
<svg version="1.1" id="Layer_3" xmlns="http://www.w3.org/2000/svg" xmlns:xlink="http://www.w3.org/1999/xlink" x="0px" y="0px"
	 width="115px" height="125px" viewBox="0 0 115 125" enable-background="new 0 0 115 125" xml:space="preserve">
<path fill="#FFFFFF" d="M10.966,61.862c1.128-5.761,1.82-11.219,3.334-16.439c1.315-4.534,3.792-5.331,8.075-3.177
	c3.406,1.713,6.698,3.691,9.887,5.785c5.943,3.903,12.242,4.779,19.069,2.973c3.047-0.806,6.164-1.425,9.287-1.847
	c5.652-0.764,7.736,0.86,7.195,6.408c-0.976,10.003-3.342,19.637-9.804,27.767c-4.234,5.327-8.477,10.648-12.642,16.028
	c-3.661,4.729-8.162,7.01-14.307,5.913c-6.164-1.1-9.518-4.809-11.267-10.564c-1.879-6.184-4.224-12.233-5.943-18.457
	C12.536,71.499,11.883,66.564,10.966,61.862z M24.247,93.88c6.555-2.68,12.342-0.812,18.198,3.379
	c1.309-5.046,1.073-8.673-2.396-11.677c-3.547-3.071-7.443-3.601-11.538-1.349C25.042,86.142,23.189,88.979,24.247,93.88z
	 M49.348,63.252c-3.991-0.034-7.382,3.19-7.464,7.096c-0.078,3.712,3.435,7.282,7.26,7.379c3.58,0.091,7.522-3.648,7.568-7.177
	C56.758,66.918,53.092,63.284,49.348,63.252z M34.008,66.741c-0.072-3.697-3.765-7.188-7.549-7.134
	c-3.717,0.053-7.404,3.789-7.309,7.406c0.097,3.698,3.834,7.201,7.581,7.107C30.569,74.023,34.08,70.462,34.008,66.741z"/>
<path fill="#FFFFFF" d="M103.949,26.705c-0.656,3.995-0.92,7.161-1.728,10.182c-1.584,5.923-3.472,11.765-5.233,17.641
	c-1.358,4.528-4.291,7.464-8.935,8.423c-4.562,0.942-8.654,0.069-11.522-3.963c-6.573-9.243-16.324-16.344-19.026-28.202
	c-0.258-1.131-0.65-2.232-0.932-3.358c-2.641-10.564-0.852-12.881,9.501-10.389c9.234,2.223,17.007,0.186,24.307-5.306
	c1.188-0.894,2.53-1.586,3.819-2.341c3.238-1.897,5.678-0.761,6.579,2.523C102.175,17.001,103.019,22.239,103.949,26.705z
	 M77.063,49.08c-0.571,4.248,1.555,6.541,4.871,7.937c3.416,1.438,6.552,0.772,9.043-1.992c2.359-2.617,3.289-5.543,1.322-9.146
	c-2.501,1.156-4.624,2.609-6.948,3.085C82.839,49.477,80.14,49.08,77.063,49.08z M90.65,22.659
	c-2.681,3.659-5.143,5.643-5.653,8.041c-0.742,3.491,2.021,5.433,5.374,5.813c3.229,0.366,6.916-2.852,6.048-5.738
	C95.683,28.327,93.375,26.351,90.65,22.659z M73.857,40.369c1.05-1.504,3.518-3.535,3.861-5.877
	c0.529-3.609-2.126-5.792-5.857-5.662c-3.402,0.118-5.792,2.104-5.725,5.567C66.206,37.984,68.531,40.013,73.857,40.369z"/>
</svg>
