<?xml version="1.0" encoding="utf-8"?>
<!-- Generator: Adobe Illustrator 17.0.0, SVG Export Plug-In . SVG Version: 6.00 Build 0)  -->
<!DOCTYPE svg PUBLIC "-//W3C//DTD SVG 1.1//EN" "http://www.w3.org/Graphics/SVG/1.1/DTD/svg11.dtd">
<svg version="1.1" id="Layer_3" xmlns="http://www.w3.org/2000/svg" xmlns:xlink="http://www.w3.org/1999/xlink" x="0px" y="0px"
	 width="115px" height="125px" viewBox="0 0 115 125" enable-background="new 0 0 115 125" xml:space="preserve">
<path fill="#FFFFFF" d="M20.06,97.409c7.51-11.621,14.815-23.114,22.394-34.424c0.973-1.452,3.332-2.689,5.104-2.766
	c7.139-0.311,14.302-0.231,21.449-0.04c1.403,0.038,3.38,0.832,4.067,1.923C80.066,73.2,86.849,84.43,93.66,95.642
	c0.227,0.373,0.132,0.941,0.302,2.402c-16.751,3.639-33.406,7.998-50.328,10.644C34.081,110.18,26.742,105.475,20.06,97.409z"/>
<path fill="#FFFFFF" d="M57.551,25.263c2.55-1.591,5.332-3.326,8.638-5.388c0-2.434-0.26-5.443,0.124-8.367
	c0.161-1.23,1.684-2.281,2.588-3.413c0.974,1.069,2.483,2.002,2.797,3.238c0.477,1.876-0.245,4.054,0.219,5.937
	c0.532,2.161,2.026,4.07,2.696,6.216c0.934,2.993,2.637,6.377,1.985,9.109c-1.644,6.88-4.423,13.488-6.373,19.124
	c-5.653,0.799-10.377,1.23-14.995,2.174c-7.511,1.535-9.582,0.552-12.189-6.748c-1.731-4.848-3.473-9.697-4.986-14.615
	c-1.166-3.791-0.524-7.103,2.909-9.785c1.162-0.908,1.827-2.886,2.044-4.467c0.336-2.451-0.184-5.029,0.228-7.456
	c0.175-1.033,1.68-2.306,2.781-2.544c0.678-0.147,1.742,1.447,2.611,2.281c0.089,0.085,0.031,0.321,0.045,0.487
	c0.277,3.233-0.402,7.051,1.111,9.529C51.201,22.897,54.942,23.798,57.551,25.263z"/>
</svg>
