<?xml version="1.0" encoding="utf-8"?>
<!-- Generator: Adobe Illustrator 17.0.0, SVG Export Plug-In . SVG Version: 6.00 Build 0)  -->
<!DOCTYPE svg PUBLIC "-//W3C//DTD SVG 1.1//EN" "http://www.w3.org/Graphics/SVG/1.1/DTD/svg11.dtd">
<svg version="1.1" id="Layer_2" xmlns="http://www.w3.org/2000/svg" xmlns:xlink="http://www.w3.org/1999/xlink" x="0px" y="0px"
	 width="115px" height="125px" viewBox="0 0 115 125" enable-background="new 0 0 115 125" xml:space="preserve">
<path fill="#FFFFFF" d="M84.793,15.211c-13.301,0.08-23.403,10.22-23.434,23.521C61.329,51.739,72.081,62.04,85.655,62.01
	c13.417-0.03,24.006-10.496,23.94-23.662C109.534,25.899,97.99,15.131,84.793,15.211z M88.039,32.508
	c0.639-3.196,2.505-5.518,4.167-5.185c1.662,0.332,2.491,3.193,1.852,6.389c-0.639,3.196-2.505,5.518-4.167,5.185
	C88.229,38.565,87.4,35.704,88.039,32.508z M71.039,29.508c0.639-3.196,2.462-5.526,4.071-5.205s2.395,3.174,1.756,6.37
	c-0.639,3.196-2.462,5.526-4.071,5.205S70.4,32.704,71.039,29.508z M79.38,56.896c-9.317-2.052-12.414-9.569-15.237-18.957
	c11.072,9.93,23.04,11.695,36.814,8.421C95.858,54.438,87.136,58.604,79.38,56.896z"/>
<path fill="#FFFFFF" d="M39.882,42.809C22.644,42.721,7.944,56.515,8,72.728c0.058,16.885,13.551,30.177,30.728,30.272
	c17.34,0.095,31.163-13.03,31.249-29.674C70.067,55.839,57.306,42.899,39.882,42.809z M48.581,55.737
	c1.901-0.835,4.719,1.394,6.294,4.979s1.311,7.168-0.59,8.003c-1.901,0.835-4.719-1.394-6.294-4.979S46.681,56.573,48.581,55.737z
	 M27.383,61.248c2.096-0.921,5.073,1.238,6.648,4.823s1.153,7.238-0.944,8.159c-2.096,0.921-5.073-1.238-6.648-4.823
	S25.287,62.169,27.383,61.248z M43.968,96.278c-10.08,0.909-21.623-5.144-25.036-13.603c16.99,3.62,32.659,2.065,46.333-11.064
	C62.174,86.642,54.356,95.342,43.968,96.278z"/>
</svg>
