<?xml version="1.0" encoding="utf-8"?>
<!-- Generator: Adobe Illustrator 17.0.0, SVG Export Plug-In . SVG Version: 6.00 Build 0)  -->
<!DOCTYPE svg PUBLIC "-//W3C//DTD SVG 1.1//EN" "http://www.w3.org/Graphics/SVG/1.1/DTD/svg11.dtd">
<svg version="1.1" id="Layer_2" xmlns="http://www.w3.org/2000/svg" xmlns:xlink="http://www.w3.org/1999/xlink" x="0px" y="0px"
	 width="115px" height="70px" viewBox="0 0 115 70" enable-background="new 0 0 115 70" xml:space="preserve">
<path fill-rule="evenodd" clip-rule="evenodd" fill="#F6CD5B" d="M79.988,8.5l-31.962,5.729v0.012v36.473
	c-0.853-0.804-2.274-1.041-3.932-1.041c-1.895,0-4.168,0.946-5.968,2.413C36.326,53.505,35,55.445,35,57.384
	c0,1.23,0.521,2.271,1.421,2.98c0.853,0.709,2.084,1.135,3.411,1.135c2.084,0,4.453-0.852,6.253-2.271
	c1.847-1.419,3.126-3.359,3.126-5.487v-35.25l29.605-5.306v32.009c-0.853-0.804-2.274-1.041-3.932-1.041
	c-1.895,0-4.169,0.946-5.968,2.413c-1.8,1.419-3.127,3.359-3.127,5.298c0,1.23,0.521,2.271,1.421,2.98
	c0.853,0.71,2.084,1.135,3.41,1.135c2.084,0,4.453-0.852,6.253-2.271C78.721,52.291,80,50.351,80,48.223L79.988,8.5z"/>
</svg>
