<?xml version="1.0" encoding="utf-8"?>
<!-- Generator: Adobe Illustrator 17.0.0, SVG Export Plug-In . SVG Version: 6.00 Build 0)  -->
<!DOCTYPE svg PUBLIC "-//W3C//DTD SVG 1.1//EN" "http://www.w3.org/Graphics/SVG/1.1/DTD/svg11.dtd">
<svg version="1.1" id="Layer_2" xmlns="http://www.w3.org/2000/svg" xmlns:xlink="http://www.w3.org/1999/xlink" x="0px" y="0px"
	 width="115px" height="125px" viewBox="0 0 115 125" enable-background="new 0 0 115 125" xml:space="preserve">
<path fill="#FFFFFF" d="M83.745,64.394c-0.568-10.253-5.332-17.836-13.804-23.006c-6.748-4.118-14.353-4.675-22.882-5.758
	c6.782,14.518,13.073,28.207,19.563,41.802c4.943,10.355,4.43,16.013-2.37,21.394c-8.089,6.402-21.57,6.929-28.409,1.112
	c-5.253-4.468-6.1-11.056-2.046-17.003c4.026-5.904,10.002-8.493,16.81-9.653c5.369-0.914,5.889-2.04,3.272-6.9
	c-7.718-14.334-15.53-28.618-23.117-43.021c-0.832-1.58-0.444-3.802-0.622-5.726c2.272-0.129,4.705-0.838,6.784-0.265
	c4.272,1.179,8.39,2.96,12.509,4.646c9.172,3.756,18.697,6.89,27.342,11.621c8.589,4.7,11.802,13.247,11.091,22.961
	c-0.191,2.602-1.344,5.134-2.055,7.699C85.122,64.33,84.433,64.362,83.745,64.394z"/>
</svg>
