<?xml version="1.0" encoding="utf-8"?>
<!-- Generator: Adobe Illustrator 17.0.0, SVG Export Plug-In . SVG Version: 6.00 Build 0)  -->
<!DOCTYPE svg PUBLIC "-//W3C//DTD SVG 1.1//EN" "http://www.w3.org/Graphics/SVG/1.1/DTD/svg11.dtd">
<svg version="1.1" id="Layer_3" xmlns="http://www.w3.org/2000/svg" xmlns:xlink="http://www.w3.org/1999/xlink" x="0px" y="0px"
	 width="115px" height="70px" viewBox="0 0 115 70" enable-background="new 0 0 115 70" xml:space="preserve">
<path fill-rule="evenodd" clip-rule="evenodd" fill="#F6CD5B" d="M91.175,61.473c0,0,0.019-2.395-1.896-7.791
	c-1.388-2.062-3.343-3.934-6.092-5.55c-0.043-1.415-0.18-3.551-0.18-3.551s-3.344-1.563-4.43-4.659
	c-2.28-0.917-1.979-1.507-2.201-2.69c0,0-0.692-4.802,0.848-4.703c0,0,1.311,0,1.066-1.103c-0.081-1.837-0.263-5.396-0.141-6.621
	c0.123-1.225,0.576-4.531,3.146-5.021c2.57-0.49,1.868-0.245,2.725-0.367c0.857-0.123,0.612-0.613,2.203-0.613l3.305-0.531
	c1.591,0,2.611,2.22,3.468,2.343c0.856,0.123,0.606-0.374,2.361-0.047c2.57,0.49,2.213,3.991,2.335,5.215
	c0.123,1.225,0.204,4.783-0.041,5.886c-0.244,1.102,0.52,0.979,0.52,0.979c1.836,0,1.714,4.703,1.714,4.703
	c-0.283,1.245-0.934,1.396-2.643,2.476c-1.086,3.096-3.983,4.996-3.983,4.996s-0.248,2.363-0.26,2.92
	c0.048,0.22-1.349,3.849,5.735,4.895c7.083,1.045,8.306,3.341,9.641,4.62c1.335,1.279,1.626,4.212,1.626,4.212
	S100.409,61.473,91.175,61.473z M67.258,31.864c-1.417,4.04-5.164,6.52-5.164,6.52s-0.323,3.083-0.339,3.81
	c0.063,0.288,0.142,5.023,9.385,6.387c5.469,1.036,9.362,2.718,10.284,6.028c1.743,1.668,1.136,6.891,1.136,6.891H30.446
	c0,0-0.132-5.223,1.61-6.891c1.743-1.668,1.96-4.664,11.204-6.028c9.243-1.365,8.147-6.233,8.45-6.081
	c-0.057-1.846-0.236-4.436-0.236-4.436s-4.363-2.04-5.78-6.08c-2.976-1.196-2.583-1.965-2.872-3.509c0,0-0.904-6.266,1.106-6.137
	c0,0,2.431,0,2.112-1.439c-0.107-2.397,0.085-2.442,0.244-4.04c0.159-1.598,1.344-5.749,4.698-6.388
	c3.354-0.639,0.696-0.32,1.814-0.479c1.118-0.16,0.798-0.799,2.875-0.799L57.029,8.5c2.076,0,2.914,4.704,4.032,4.864
	c1.118,0.159,1.384-0.488,3.673-0.062c3.353,0.64,2.231,0.773,2.391,2.37c0.16,1.598,0.43,2.628,0.111,4.067
	c-0.32,1.438,2.648,1.278,2.648,1.278c2.396,0,1.643,7.615,1.643,7.615C71.159,30.257,69.489,30.455,67.258,31.864z M35.424,39.922
	c-1.086,3.096-4.43,4.659-4.43,4.659s-0.137,2.137-0.181,3.551c-2.75,1.616-4.704,3.488-6.092,5.55
	c-1.915,5.396-1.896,7.791-1.896,7.791c-9.234,0-18.825,0-18.825,0s0.291-2.934,1.626-4.212c1.335-1.279,2.558-3.575,9.641-4.62
	c7.084-1.046,5.687-4.675,5.735-4.895c-0.012-0.557-0.26-2.92-0.26-2.92s-2.897-1.9-3.983-4.996c-1.71-1.08-2.361-1.231-2.643-2.476
	c0,0-0.122-4.703,1.714-4.703c0,0,0.764,0.123,0.52-0.979c-0.245-1.103-0.163-4.661-0.041-5.886
	c0.122-1.225-0.235-4.725,2.335-5.215c1.754-0.327,1.504,0.17,2.361,0.047s1.877-2.343,3.468-2.343l3.305,0.531
	c1.591,0,1.346,0.49,2.203,0.613c0.857,0.122,0.155-0.123,2.725,0.367c2.57,0.49,3.023,3.796,3.146,5.021
	c0.122,1.225-0.059,4.784-0.141,6.621c-0.245,1.103,1.066,1.103,1.066,1.103c1.54-0.099,0.848,4.703,0.848,4.703
	C37.403,38.415,37.704,39.005,35.424,39.922z"/>
</svg>
