<?xml version="1.0" encoding="utf-8"?>
<!-- Generator: Adobe Illustrator 17.0.0, SVG Export Plug-In . SVG Version: 6.00 Build 0)  -->
<!DOCTYPE svg PUBLIC "-//W3C//DTD SVG 1.1//EN" "http://www.w3.org/Graphics/SVG/1.1/DTD/svg11.dtd">
<svg version="1.1" id="Layer_1" xmlns="http://www.w3.org/2000/svg" xmlns:xlink="http://www.w3.org/1999/xlink" x="0px" y="0px"
	 width="180px" height="50px" viewBox="0 0 180 50" enable-background="new 0 0 180 50" xml:space="preserve">
<g id="Layer_1_3_" display="none">
	<g id="Layer_2" display="inline">
		<rect x="-0.061" y="-2" fill="#BFA01B" stroke="#000000" stroke-miterlimit="10" width="182.875" height="53.5"/>
	</g>
	<g id="Layer_1_1_" display="inline">
		<g>
			<path fill="#FFFFFF" d="M32.407,21.417c0.243-0.14,0.425-0.214,0.546-0.22c0.121-0.006,0.31,0.054,0.565,0.182
				c0.307,0.154,0.518,0.425,0.633,0.815c0.115,0.39,0.192,1.071,0.23,2.042c0.038,1.137,0.092,1.706,0.163,1.706
				c0.07,0,0.482-0.268,1.236-0.805l2.741-1.86c0.779-0.511,1.278-0.817,1.495-0.92c0.217-0.102,0.498-0.153,0.843-0.153
				c0.332,0,0.556,0.022,0.671,0.067s0.249,0.163,0.402,0.355c0.141,0.166,0.23,0.307,0.268,0.422
				c0.038,0.115,0.045,0.275,0.019,0.479c-0.051,0.332-0.141,0.594-0.268,0.786c-0.103,0.154-1.01,0.76-2.722,1.821
				c-1.713,1.061-2.62,1.649-2.722,1.763c-0.141,0.154-0.17,0.297-0.086,0.431c0.083,0.134,0.297,0.304,0.642,0.508
				c0.281,0.153,1.195,0.786,2.741,1.898c1.546,1.112,2.562,1.866,3.048,2.262c0.37,0.281,0.626,0.607,0.767,0.978
				c0.089,0.268,0.134,0.457,0.134,0.566c0,0.108-0.064,0.303-0.192,0.584c-0.103,0.243-0.198,0.406-0.288,0.489
				c-0.09,0.083-0.23,0.144-0.422,0.182c-0.447,0.077-0.853,0.029-1.217-0.144s-1.025-0.629-1.984-1.37
				c-1.227-0.933-2.089-1.62-2.588-2.061c-0.498-0.441-1.048-0.891-1.649-1.351c-0.179-0.153-0.326-0.268-0.441-0.345
				s-0.211-0.134-0.288-0.173c-0.077-0.038-0.131-0.054-0.163-0.048c-0.032,0.006-0.054,0.035-0.067,0.086
				c-0.064,0.141-0.051,0.837,0.038,2.089c0.077,1.099,0.07,1.827-0.019,2.185c-0.09,0.358-0.333,0.632-0.729,0.824
				c-0.205,0.102-0.361,0.156-0.47,0.163c-0.109,0.006-0.265-0.023-0.47-0.086c-0.205-0.064-0.358-0.137-0.46-0.22
				c-0.103-0.083-0.198-0.192-0.288-0.326c-0.09-0.134-0.154-0.358-0.192-0.671s-0.071-0.661-0.096-1.045
				c-0.026-0.383-0.051-0.945-0.077-1.687c-0.051-1.342-0.048-3.22,0.01-5.636c0.057-2.415,0.131-3.77,0.22-4.064
				C31.966,21.762,32.126,21.596,32.407,21.417z"/>
			<path fill="#FFFFFF" d="M45.23,24.944c0.192-0.102,0.326-0.153,0.403-0.153s0.217,0.038,0.422,0.115
				c0.409,0.153,0.696,0.569,0.863,1.246c0.077,0.333,0.153,1.891,0.23,4.677c0.077,2.62,0.064,4.141-0.038,4.562
				c-0.077,0.256-0.237,0.466-0.479,0.632c-0.166,0.115-0.431,0.179-0.796,0.192c-0.364,0.012-0.617-0.038-0.757-0.154
				c-0.141-0.102-0.307-0.339-0.499-0.709c-0.141-0.281-0.22-0.626-0.239-1.035c-0.019-0.409-0.01-1.655,0.029-3.738
				c0.026-1.853,0.057-3.051,0.096-3.594c0.038-0.543,0.108-0.955,0.211-1.236C44.84,25.315,45.026,25.046,45.23,24.944z
				 M44.885,21.513c0.179-0.192,0.329-0.316,0.45-0.374c0.121-0.057,0.29-0.086,0.508-0.086c0.613,0,1.08,0.3,1.399,0.901
				c0.153,0.294,0.166,0.617,0.038,0.968c-0.128,0.352-0.345,0.61-0.652,0.776c-0.217,0.103-0.496,0.157-0.834,0.163
				c-0.339,0.007-0.578-0.041-0.719-0.144c-0.371-0.307-0.575-0.668-0.613-1.083C44.425,22.219,44.566,21.845,44.885,21.513z"/>
			<path fill="#FFFFFF" d="M56.444,21.302c0.243-0.294,0.537-0.425,0.882-0.393s0.607,0.214,0.786,0.546
				c0.115,0.23,0.214,1.112,0.297,2.645c0.083,1.533,0.125,3.31,0.125,5.329v2.664l0.479,0.23c0.524,0.256,0.84,0.617,0.949,1.083
				c0.108,0.466-0.003,0.949-0.336,1.447c-0.243,0.345-0.569,0.62-0.977,0.824c-0.409,0.204-0.978,0.364-1.706,0.479
				c-0.741,0.128-1.639,0.192-2.693,0.192s-1.856-0.064-2.406-0.192c-0.792-0.192-1.524-0.537-2.195-1.035s-1.166-1.067-1.486-1.706
				c-0.103-0.192-0.166-0.425-0.192-0.7s-0.038-0.757-0.038-1.447c0-0.818,0.019-1.335,0.057-1.553
				c0.038-0.217,0.166-0.537,0.383-0.958c0.281-0.524,0.709-1.074,1.285-1.649c0.575-0.575,1.137-1.009,1.687-1.304l0.824-0.441
				l3.469-0.019l0.153-1.399c0.089-0.92,0.169-1.534,0.24-1.84C56.102,21.8,56.239,21.532,56.444,21.302z M54.948,28.068
				c-0.422-0.217-0.799-0.326-1.131-0.326c-0.294,0-0.639,0.105-1.035,0.316s-0.786,0.502-1.169,0.872
				c-0.729,0.703-1.093,1.47-1.093,2.3c0,0.435,0.092,0.792,0.278,1.074c0.185,0.281,0.482,0.518,0.891,0.709
				c0.371,0.179,0.875,0.31,1.514,0.393s1.205,0.096,1.697,0.038c0.492-0.057,0.738-0.169,0.738-0.335
				c-0.013-0.153-0.026-0.978-0.038-2.473l-0.019-2.262L54.948,28.068z"/>
			<path fill="#FFFFFF" d="M65.124,23.952c0.088-0.011,0.215-0.022,0.38-0.033c0.473-0.044,0.944-0.06,1.413-0.05
				c0.468,0.011,0.912,0.052,1.33,0.124c0.419,0.072,0.851,0.234,1.297,0.487c0.446,0.254,0.884,0.59,1.314,1.008
				c0.738,0.749,1.261,1.515,1.57,2.297c0.308,0.783,0.43,1.647,0.364,2.595c-0.044,0.705-0.121,1.262-0.231,1.669
				c-0.176,0.65-0.554,1.278-1.132,1.884c-0.578,0.606-1.286,1.118-2.124,1.537c-0.474,0.232-0.815,0.377-1.024,0.438
				c-0.21,0.06-0.557,0.096-1.041,0.107c-1.366,0.066-2.608-0.248-3.726-0.942c-1.119-0.694-1.92-1.647-2.405-2.859
				c-0.143-0.364-0.229-0.672-0.256-0.925c-0.027-0.253-0.041-0.832-0.041-1.735V27.67l0.463-0.958
				c0.176-0.364,0.366-0.688,0.57-0.975c0.204-0.286,0.394-0.523,0.57-0.711c0.176-0.187,0.374-0.349,0.595-0.487
				c0.22-0.138,0.408-0.24,0.562-0.306s0.339-0.121,0.554-0.165c0.215-0.044,0.374-0.072,0.479-0.083
				c0.104-0.011,0.25-0.022,0.438-0.033C65.086,23.952,65.113,23.952,65.124,23.952z M68.231,26.761
				c-0.54-0.253-1.058-0.325-1.553-0.215c-0.496,0.11-0.892,0.38-1.19,0.81c-0.176,0.242-0.292,0.529-0.347,0.859
				c-0.055,0.331-0.077,0.614-0.066,0.851s-0.022,0.444-0.099,0.62c-0.077,0.176-0.215,0.264-0.413,0.264
				c-0.165,0-0.394-0.091-0.686-0.273c-0.292-0.182-0.499-0.361-0.62-0.537c-0.187-0.253-0.303-0.237-0.347,0.05
				c-0.088,0.485,0.044,1.157,0.396,2.016c0.033,0.099,0.072,0.198,0.116,0.297c0.253,0.529,0.523,0.923,0.81,1.181
				c0.287,0.259,0.688,0.471,1.206,0.636c0.661,0.209,1.215,0.295,1.661,0.256c0.446-0.038,1.022-0.223,1.727-0.553
				c0.231-0.11,0.482-0.336,0.752-0.678c0.27-0.341,0.471-0.683,0.603-1.024c0.319-0.848,0.286-1.719-0.099-2.611
				C69.697,27.819,69.08,27.169,68.231,26.761z"/>
			<path fill="#FFFFFF" d="M78.407,21.11c0.268,0.128,0.441,0.316,0.518,0.565c0.077,0.249,0.092,0.505,0.048,0.767
				c-0.045,0.262-0.109,0.652-0.192,1.169c-0.083,0.518-0.131,1-0.144,1.447l-0.019,0.939l5.31-0.096l0.46,0.46
				c0.192,0.192,0.316,0.352,0.374,0.479c0.057,0.128,0.086,0.32,0.086,0.575c0,0.256-0.029,0.447-0.086,0.575
				c-0.058,0.128-0.182,0.288-0.374,0.479l-0.46,0.46l-5.31-0.096l-0.038,0.403c-0.038,0.345,0.019,0.866,0.173,1.562
				c0.153,0.697,0.326,1.243,0.518,1.639c0.409,0.83,0.901,1.23,1.476,1.198c0.575-0.032,1.074-0.482,1.495-1.351
				c0.179-0.383,0.415-0.722,0.709-1.016s0.543-0.441,0.748-0.441c0.511,0,0.92,0.307,1.227,0.92
				c0.192,0.371,0.29,0.655,0.297,0.853c0.006,0.198-0.08,0.521-0.259,0.968c-0.192,0.537-0.511,1.035-0.958,1.495
				s-0.965,0.831-1.553,1.112c-0.46,0.217-0.786,0.345-0.977,0.383c-0.192,0.038-0.518,0.045-0.978,0.019
				c-0.69-0.038-1.307-0.201-1.85-0.489s-0.977-0.652-1.303-1.093c-0.326-0.441-0.604-0.923-0.834-1.447s-0.4-1.051-0.508-1.581
				c-0.109-0.53-0.195-1.016-0.259-1.457s-0.115-0.814-0.153-1.121c-0.038-0.307-0.077-0.479-0.115-0.518
				c-0.064-0.077-0.364-0.14-0.901-0.192c-0.55-0.064-0.936-0.188-1.16-0.374c-0.224-0.185-0.336-0.482-0.336-0.892
				c0-0.422,0.112-0.725,0.336-0.911c0.223-0.185,0.629-0.303,1.217-0.355c0.588-0.051,0.914-0.115,0.978-0.192
				c0.025-0.025,0.073-0.255,0.144-0.69c0.07-0.434,0.166-0.917,0.288-1.447c0.121-0.53,0.278-1.051,0.47-1.562
				s0.45-0.885,0.776-1.121C77.611,20.902,77.985,20.893,78.407,21.11z"/>
			<path fill="#FFFFFF" d="M89.053,21.981c0.541-0.141,1.124-0.197,1.748-0.168c0.624,0.03,1.112,0.133,1.465,0.309
				c0.388,0.2,0.774,0.494,1.156,0.883c0.382,0.388,0.65,0.748,0.803,1.077c0.259,0.589,0.418,1.115,0.477,1.58
				s0.076,1.321,0.053,2.569l-0.053,3.796l0.583,0.07c0.424,0.047,0.753,0.227,0.989,0.538c0.235,0.312,0.306,0.668,0.212,1.068
				c-0.13,0.483-0.683,0.93-1.66,1.342c-1.412,0.577-2.813,0.797-4.202,0.662c-1.389-0.135-2.442-0.603-3.16-1.404
				c-0.73-0.801-1.095-1.721-1.095-2.763s0.365-2.051,1.095-3.028c1.071-1.412,2.424-2.071,4.061-1.977
				c0.588,0.047,0.9,0.042,0.936-0.018c0.035-0.059,0.006-0.3-0.088-0.724c-0.059-0.259-0.132-0.468-0.221-0.627
				c-0.088-0.159-0.244-0.35-0.468-0.574c-0.271-0.271-0.465-0.433-0.583-0.486c-0.118-0.053-0.33-0.079-0.636-0.079
				c-0.435,0-0.9,0.086-1.395,0.256c-0.494,0.171-0.818,0.362-0.971,0.574c-0.377,0.518-0.806,0.671-1.289,0.459
				c-0.212-0.082-0.362-0.194-0.45-0.335c-0.088-0.141-0.133-0.341-0.133-0.6c0-0.447,0.276-0.906,0.83-1.377
				C87.611,22.534,88.276,22.193,89.053,21.981z M92.054,29.078c-0.412-0.212-0.859-0.25-1.342-0.115s-0.924,0.427-1.324,0.874
				c-0.271,0.294-0.45,0.55-0.538,0.768s-0.133,0.515-0.133,0.892c0,0.247,0.023,0.43,0.071,0.547
				c0.047,0.118,0.159,0.265,0.335,0.441c0.494,0.494,1.265,0.712,2.313,0.653l0.653-0.053l0.07-0.583
				c0.047-0.4,0.1-1.042,0.159-1.924l0.088-1.324L92.054,29.078z"/>
			<path fill="#FFFFFF" d="M98.438,24.944c0.192-0.102,0.326-0.153,0.403-0.153s0.217,0.038,0.422,0.115
				c0.409,0.153,0.696,0.569,0.863,1.246c0.077,0.333,0.153,1.891,0.23,4.677c0.077,2.62,0.064,4.141-0.038,4.562
				c-0.077,0.256-0.237,0.466-0.479,0.632c-0.166,0.115-0.431,0.179-0.796,0.192c-0.364,0.012-0.617-0.038-0.757-0.154
				c-0.141-0.102-0.307-0.339-0.498-0.709c-0.141-0.281-0.22-0.626-0.239-1.035s-0.01-1.655,0.029-3.738
				c0.026-1.853,0.057-3.051,0.096-3.594c0.038-0.543,0.108-0.955,0.211-1.236C98.048,25.315,98.233,25.046,98.438,24.944z
				 M98.093,21.513c0.179-0.192,0.329-0.316,0.45-0.374c0.121-0.057,0.29-0.086,0.508-0.086c0.613,0,1.08,0.3,1.399,0.901
				c0.153,0.294,0.166,0.617,0.038,0.968c-0.128,0.352-0.345,0.61-0.652,0.776c-0.217,0.103-0.496,0.157-0.834,0.163
				c-0.339,0.007-0.578-0.041-0.719-0.144c-0.371-0.307-0.575-0.668-0.613-1.083C97.633,22.219,97.773,21.845,98.093,21.513z"/>
			<path fill="#FFFFFF" d="M102.061,22.625c0.115-0.128,0.22-0.208,0.316-0.24s0.233-0.035,0.412-0.01
				c0.409,0.077,0.677,0.23,0.805,0.46s0.198,0.697,0.211,1.399c0.038,0.831,0.086,1.278,0.144,1.342
				c0.057,0.064,0.367-0.14,0.93-0.613c1.559-1.329,3.112-1.942,4.658-1.84c1.878,0.128,3.258,1.368,4.14,3.719
				c0.166,0.435,0.268,0.799,0.307,1.093c0.038,0.294,0.057,0.85,0.057,1.668c0.013,1.202-0.07,2.441-0.249,3.719
				c-0.141,0.92-0.243,1.489-0.307,1.706c-0.064,0.217-0.192,0.409-0.383,0.575c-0.371,0.345-0.843,0.447-1.418,0.307
				c-0.575-0.141-0.927-0.441-1.054-0.901c-0.128-0.473-0.007-1.757,0.364-3.853c0.141-0.945,0.16-1.805,0.058-2.578
				c-0.103-0.773-0.323-1.406-0.661-1.898c-0.339-0.492-0.745-0.738-1.217-0.738c-0.741,0-1.543,0.339-2.406,1.016
				c-0.863,0.678-1.543,1.502-2.041,2.473c-0.166,0.332-0.345,0.588-0.537,0.767c-0.115,0.103-0.182,0.246-0.201,0.431
				s-0.023,0.776-0.01,1.773c0,0.013,0,0.032,0,0.057c0.013,1.188-0.019,1.955-0.096,2.3c-0.077,0.345-0.262,0.594-0.556,0.748
				c-0.792,0.421-1.425,0.192-1.898-0.69c-0.103-0.192-0.169-0.479-0.201-0.863c-0.032-0.383-0.061-1.189-0.086-2.415
				c-0.026-1.623,0.01-3.281,0.105-4.974c0.096-1.693,0.214-2.732,0.355-3.115C101.728,23.104,101.881,22.829,102.061,22.625z"/>
			<path fill="#FFFFFF" d="M118.047,25.04c-0.051,0-0.134,0.07-0.249,0.211s-0.252,0.358-0.412,0.652s-0.304,0.661-0.431,1.102
				c-0.128,0.441-0.224,0.958-0.288,1.553c-0.064,0.594-0.064,1.268,0,2.022c0.077,0.895,0.121,1.719,0.134,2.473
				c0,0.511-0.016,0.843-0.048,0.997c-0.032,0.153-0.118,0.3-0.259,0.441c-0.166,0.166-0.364,0.268-0.594,0.307
				c-0.23,0.038-0.447,0-0.652-0.115c-0.102-0.064-0.185-0.125-0.249-0.182s-0.122-0.17-0.172-0.336
				c-0.051-0.166-0.09-0.345-0.115-0.537c-0.026-0.192-0.045-0.499-0.057-0.92c-0.013-0.422-0.023-0.869-0.029-1.342
				c-0.007-0.473-0.01-1.125-0.01-1.955v-4.255l0.326-0.632c0.294-0.588,0.635-1.131,1.025-1.629s0.712-0.817,0.968-0.958
				c0.409-0.204,0.901-0.275,1.476-0.211s1.022,0.243,1.342,0.537c0.192,0.166,0.47,0.53,0.834,1.093
				c0.364,0.562,0.623,1.029,0.776,1.399c0.153,0.358,0.284,0.537,0.393,0.537c0.108,0,0.214-0.179,0.316-0.537
				c0.102-0.358,0.307-0.831,0.613-1.418c0.307-0.588,0.537-0.952,0.69-1.093c0.102-0.089,0.259-0.192,0.47-0.307
				s0.482-0.23,0.814-0.345s0.719-0.166,1.16-0.153s0.866,0.115,1.275,0.307c0.92,0.435,1.607,1.418,2.061,2.952
				c0.453,1.533,0.738,3.866,0.853,6.997c0.038,0.946,0.048,1.546,0.029,1.802c-0.019,0.256-0.093,0.511-0.221,0.767
				c-0.345,0.69-0.894,0.907-1.648,0.652c-0.32-0.103-0.543-0.24-0.671-0.412c-0.128-0.173-0.22-0.441-0.278-0.805
				c-0.057-0.364-0.105-0.987-0.144-1.869c-0.064-1.598-0.211-3.08-0.441-4.447s-0.486-2.262-0.767-2.683l-0.23-0.345l-0.288,0.364
				c-0.268,0.319-0.565,1.077-0.891,2.272s-0.649,2.46-0.968,3.795c-0.32,1.336-0.569,2.221-0.748,2.655
				c-0.243,0.588-0.623,0.952-1.141,1.093c-0.518,0.14-0.981,0.006-1.39-0.403c-0.243-0.243-0.396-0.534-0.46-0.872
				c-0.064-0.338-0.128-1.217-0.192-2.636c-0.051-1.112-0.16-2.013-0.326-2.703c-0.128-0.601-0.333-1.23-0.613-1.888
				C118.341,25.369,118.149,25.04,118.047,25.04z"/>
			<path fill="#FFFFFF" d="M135.95,21.781c0.882-0.204,1.939-0.249,3.172-0.134s2.188,0.345,2.866,0.69
				c0.37,0.192,0.824,0.55,1.361,1.073c0.345,0.345,0.578,0.617,0.7,0.815c0.121,0.198,0.246,0.515,0.374,0.949
				c0.281,0.92,0.329,1.808,0.144,2.664c-0.185,0.856-0.553,1.476-1.102,1.86l-0.498,0.364l-4.62,0.019
				c-3.067,0.013-4.619,0.051-4.658,0.115c-0.064,0.09,0.041,0.361,0.316,0.815s0.533,0.789,0.776,1.006
				c0.294,0.256,0.677,0.498,1.15,0.728c0.332,0.153,0.616,0.246,0.853,0.278c0.236,0.032,0.706,0.048,1.409,0.048
				c0.703-0.013,1.367-0.064,1.993-0.153c0.626-0.089,1.115-0.192,1.467-0.307c0.351-0.115,0.712-0.223,1.083-0.326
				c0.37-0.102,0.639-0.159,0.805-0.172c0.166-0.013,0.383,0.032,0.652,0.134c0.294,0.153,0.486,0.467,0.575,0.939
				c0.089,0.473,0.038,0.888-0.153,1.246c-0.103,0.217-0.364,0.441-0.786,0.671s-0.78,0.345-1.073,0.345
				c-0.077,0-0.361,0.045-0.853,0.134s-1.023,0.182-1.591,0.278c-0.569,0.096-1.24,0.147-2.013,0.153s-1.518-0.051-2.233-0.173
				c-0.716-0.122-1.441-0.374-2.176-0.757c-0.735-0.384-1.358-0.895-1.869-1.534c-0.422-0.524-0.719-0.978-0.892-1.361
				c-0.172-0.383-0.31-0.92-0.412-1.61c-0.103-0.677-0.125-1.396-0.067-2.156c0.057-0.76,0.182-1.415,0.374-1.965
				c0.179-0.537,0.463-1.089,0.853-1.658c0.39-0.568,0.808-1.064,1.256-1.486c0.499-0.46,0.942-0.798,1.332-1.016
				C134.854,22.081,135.35,21.909,135.95,21.781z M141.049,25.366c-0.294-0.217-0.661-0.406-1.102-0.566
				c-0.441-0.159-0.943-0.275-1.505-0.345c-0.562-0.07-1.153,0-1.773,0.211s-1.173,0.566-1.658,1.064
				c-0.333,0.345-0.607,0.726-0.824,1.141c-0.217,0.416-0.281,0.674-0.192,0.776c0.089,0.09,1.364,0.083,3.824-0.019
				s3.754-0.204,3.882-0.307c0.192-0.153,0.214-0.453,0.067-0.901C141.621,25.973,141.381,25.622,141.049,25.366z"/>
			<path fill="#FFFFFF" d="M146.301,22.625c0.115-0.128,0.22-0.208,0.316-0.24s0.233-0.035,0.412-0.01
				c0.409,0.077,0.677,0.23,0.805,0.46c0.128,0.23,0.198,0.697,0.211,1.399c0.038,0.831,0.086,1.278,0.144,1.342
				c0.057,0.064,0.367-0.14,0.93-0.613c1.559-1.329,3.112-1.942,4.658-1.84c1.878,0.128,3.258,1.368,4.14,3.719
				c0.166,0.435,0.268,0.799,0.307,1.093c0.038,0.294,0.057,0.85,0.057,1.668c0.013,1.202-0.07,2.441-0.249,3.719
				c-0.141,0.92-0.243,1.489-0.307,1.706c-0.064,0.217-0.192,0.409-0.383,0.575c-0.371,0.345-0.843,0.447-1.418,0.307
				c-0.575-0.141-0.927-0.441-1.054-0.901c-0.128-0.473-0.007-1.757,0.364-3.853c0.141-0.945,0.16-1.805,0.058-2.578
				c-0.103-0.773-0.323-1.406-0.661-1.898c-0.339-0.492-0.745-0.738-1.217-0.738c-0.741,0-1.543,0.339-2.406,1.016
				c-0.863,0.678-1.543,1.502-2.041,2.473c-0.166,0.332-0.345,0.588-0.537,0.767c-0.115,0.103-0.182,0.246-0.201,0.431
				s-0.023,0.776-0.01,1.773c0,0.013,0,0.032,0,0.057c0.013,1.188-0.019,1.955-0.096,2.3c-0.077,0.345-0.262,0.594-0.556,0.748
				c-0.792,0.421-1.425,0.192-1.898-0.69c-0.103-0.192-0.169-0.479-0.201-0.863c-0.032-0.383-0.061-1.189-0.086-2.415
				c-0.026-1.623,0.01-3.281,0.105-4.974c0.096-1.693,0.214-2.732,0.355-3.115C145.969,23.104,146.122,22.829,146.301,22.625z"/>
			<path fill="#FFFFFF" d="M164.185,21.11c0.268,0.128,0.441,0.316,0.518,0.565c0.077,0.249,0.092,0.505,0.048,0.767
				c-0.045,0.262-0.109,0.652-0.192,1.169c-0.083,0.518-0.131,1-0.144,1.447l-0.019,0.939l5.31-0.096l0.46,0.46
				c0.192,0.192,0.316,0.352,0.374,0.479c0.057,0.128,0.086,0.32,0.086,0.575c0,0.256-0.029,0.447-0.086,0.575
				c-0.058,0.128-0.182,0.288-0.374,0.479l-0.46,0.46l-5.31-0.096l-0.038,0.403c-0.038,0.345,0.019,0.866,0.173,1.562
				c0.153,0.697,0.326,1.243,0.518,1.639c0.409,0.83,0.901,1.23,1.476,1.198c0.575-0.032,1.074-0.482,1.495-1.351
				c0.179-0.383,0.415-0.722,0.709-1.016s0.543-0.441,0.748-0.441c0.511,0,0.92,0.307,1.227,0.92
				c0.192,0.371,0.29,0.655,0.297,0.853c0.006,0.198-0.08,0.521-0.259,0.968c-0.192,0.537-0.511,1.035-0.958,1.495
				c-0.447,0.46-0.965,0.831-1.553,1.112c-0.46,0.217-0.786,0.345-0.977,0.383c-0.192,0.038-0.518,0.045-0.978,0.019
				c-0.69-0.038-1.307-0.201-1.85-0.489s-0.977-0.652-1.303-1.093c-0.326-0.441-0.604-0.923-0.834-1.447s-0.4-1.051-0.508-1.581
				c-0.109-0.53-0.195-1.016-0.259-1.457s-0.115-0.814-0.153-1.121c-0.038-0.307-0.077-0.479-0.115-0.518
				c-0.064-0.077-0.364-0.14-0.901-0.192c-0.55-0.064-0.936-0.188-1.16-0.374c-0.224-0.185-0.336-0.482-0.336-0.892
				c0-0.422,0.112-0.725,0.336-0.911c0.223-0.185,0.629-0.303,1.217-0.355c0.588-0.051,0.914-0.115,0.978-0.192
				c0.025-0.025,0.073-0.255,0.144-0.69c0.07-0.434,0.166-0.917,0.288-1.447c0.121-0.53,0.278-1.051,0.47-1.562
				s0.45-0.885,0.776-1.121C163.39,20.902,163.764,20.893,164.185,21.11z"/>
			<g>
				<path fill="#FFFFFF" d="M35.283,17.94c-0.416,0.197-0.852,0.329-1.286,0.475c-0.338,0.114-0.692,0.361-1.051,0.171
					c-1.037-0.547,0.335-1.684,0.808-2.032c0.493-0.359,1.006-1.208,1.527-1.39c0.578-0.202,1.191,0.002,1.419,0.573
					c0.137,0.343,0.055,0.802-0.161,1.171C36.271,17.368,35.805,17.693,35.283,17.94z"/>
				<path fill="#FFFFFF" d="M13.891,15.124c-0.205-0.352-0.284-0.791-0.153-1.119c0.217-0.546,0.802-0.741,1.355-0.548
					c0.497,0.174,0.987,0.985,1.458,1.328c0.452,0.332,1.762,1.418,0.772,1.94c-0.343,0.181-0.681-0.055-1.003-0.164
					c-0.415-0.14-0.831-0.266-1.228-0.454C14.592,15.872,14.146,15.562,13.891,15.124z"/>
				<path fill="#FFFFFF" d="M31.88,16.811c-0.171-0.764-0.424-1.516-0.661-2.26c-0.656-2.052-2.29-3.978-4.493-4.389
					c-0.77-0.143-1.564-0.087-2.331,0.081c-0.128,0.028-0.255,0.059-0.38,0.093c-1.022,0.275-2.115,0.678-3.044,1.182
					c-1.968,1.067-3.095,3.598-3.2,5.76c-0.02,0.418,0.005,0.84,0.071,1.266c0.431,0.225,0.966,0.447,1.341,0.78
					c-0.023-0.085-0.049-0.168-0.069-0.256c-0.347-1.529-0.162-2.962,0.555-4.3c0.462-0.844,2.154,0.081,2.905-0.248
					c0.642-0.281,0.372-1.488,1.042-1.581c0.249-0.035,0.491,0.078,0.719,0.184c0.868,0.404,1.764,0.748,2.68,1.027
					c0.325,0.099,0.692,0.186,0.989,0.022c0.218-0.121,0.351-0.359,0.402-0.603c0.041-0.194-0.054-0.646,0.09-0.795
					c0.216-0.224,0.555,0.186,0.671,0.36c0.655,0.983,1.031,2.088,1.278,3.235c0.173,0.93,0.197,1.7,0.07,2.309
					c-0.126,0.61-0.448,1.268-0.966,1.976c-0.662,0.902-1.301,1.54-1.919,1.914c-0.618,0.375-1.543,0.682-2.776,0.922
					c-0.275,0.052-0.613,0.042-1.012-0.028c0.142,0.123,0.277,0.267,0.398,0.444c0.134,0.196,0.132,0.47,0.032,0.694
					c1.6,0.128,3.215-0.251,4.608-1.218c1.773-1.232,2.949-3.291,3.064-5.451C31.965,17.474,31.944,17.101,31.88,16.811z"/>
				<g>
					<path fill="#FFFFFF" d="M22.784,16.561c-0.288,0.603,0.277,1.276,0.858,1.403c0.61,0.134,1.369-0.266,1.188-0.979
						c-0.061-0.241-0.221-0.448-0.411-0.608C23.861,15.908,23.147,15.8,22.784,16.561z"/>
				</g>
				<g>
					<path fill="#FFFFFF" d="M26.949,17.435c0.339,0.115,0.697,0.06,0.938-0.21c0.088-0.099,0.152-0.225,0.15-0.357
						c-0.002-0.137-0.194-0.298-0.264-0.416c-0.145-0.245-0.223-0.451-0.517-0.514c-0.256-0.055-0.565,0.07-0.712,0.287
						C26.376,16.474,26.067,17.137,26.949,17.435z"/>
				</g>
				<path fill="#FFFFFF" d="M24.673,20.439c-0.179,0.007-0.249,0.237-0.104,0.343c0.316,0.232,0.654,0.432,1.022,0.563
					c0.54,0.192,1.155,0.223,1.676-0.015c0.599-0.273,0.962-0.829,1.18-1.429c0.058-0.16-0.107-0.312-0.26-0.237
					c-0.312,0.152-0.802,0.351-1.461,0.499C25.856,20.359,25.132,20.422,24.673,20.439z"/>
			</g>
			<path fill="#FFFFFF" d="M12.076,20.281c0.143-0.018,0.349-0.036,0.618-0.054c0.771-0.071,1.537-0.098,2.299-0.081
				c0.762,0.018,1.483,0.085,2.164,0.202s1.384,0.381,2.11,0.793c0.726,0.413,1.438,0.959,2.137,1.64
				c1.2,1.219,2.052,2.465,2.554,3.737c0.502,1.273,0.699,2.68,0.591,4.221c-0.072,1.147-0.197,2.052-0.376,2.715
				c-0.287,1.058-0.9,2.079-1.841,3.065s-2.093,1.819-3.455,2.5c-0.771,0.376-1.327,0.614-1.667,0.713
				c-0.341,0.098-0.905,0.157-1.694,0.175c-2.223,0.108-4.244-0.403-6.062-1.532c-1.819-1.129-3.123-2.679-3.912-4.651
				c-0.233-0.591-0.372-1.093-0.417-1.505c-0.045-0.412-0.067-1.353-0.067-2.823v-3.065l0.753-1.559
				c0.287-0.591,0.596-1.12,0.928-1.586C7.07,22.72,7.38,22.335,7.666,22.03c0.287-0.305,0.609-0.569,0.968-0.793
				c0.358-0.224,0.663-0.39,0.914-0.497c0.251-0.108,0.551-0.197,0.901-0.269c0.349-0.071,0.609-0.116,0.78-0.134
				c0.17-0.018,0.407-0.036,0.712-0.054C12.014,20.281,12.058,20.281,12.076,20.281z M20.33,24.054
				c-0.988-0.906-2.05-1.408-3.187-1.506c-1.138-0.097-2.17,0.215-3.097,0.936c-0.541,0.402-0.982,0.938-1.323,1.61
				s-0.579,1.266-0.714,1.781c-0.136,0.516-0.346,0.937-0.63,1.263s-0.639,0.423-1.064,0.289c-0.354-0.111-0.784-0.46-1.287-1.046
				c-0.504-0.586-0.827-1.109-0.968-1.569c-0.231-0.669-0.491-0.712-0.778-0.127c-0.515,0.981-0.684,2.511-0.506,4.591
				c0.004,0.235,0.02,0.473,0.048,0.716c0.188,1.305,0.501,2.331,0.942,3.079c0.44,0.748,1.16,1.474,2.159,2.176
				c1.277,0.894,2.407,1.45,3.39,1.667c0.983,0.218,2.341,0.209,4.076-0.025c0.57-0.08,1.259-0.396,2.068-0.947
				s1.47-1.148,1.983-1.792c1.256-1.604,1.771-3.493,1.544-5.667C22.76,27.308,21.875,25.499,20.33,24.054z"/>
			<g>
				<path fill="#FFFFFF" d="M9.97,30.608c-0.079,0.664,0.447,1.186,1.025,1.381c0.275,0.093,0.563,0.056,0.844,0.051
					c0.652-0.013,1.197-0.535,1.197-1.197c0-0.643-0.544-1.21-1.197-1.197c-0.1,0.002-0.079-0.235-0.673-0.235
					C10.456,29.411,10.047,29.961,9.97,30.608L9.97,30.608z"/>
			</g>
			<g>
				<path fill="#FFFFFF" d="M17.884,30.648c0.582,0,1.104-0.272,1.335-0.813c0.084-0.198,0.117-0.426,0.045-0.628
					c-0.075-0.21-0.454-0.358-0.623-0.503c-0.352-0.302-0.579-0.578-1.065-0.522c-0.424,0.049-0.834,0.402-0.946,0.814
					C16.5,29.468,16.37,30.649,17.884,30.648z"/>
			</g>
			<path fill="#FFFFFF" d="M12.723,34.406c-0.089-0.011-0.169,0.005-0.209,0.088c-0.054,0.112,0.058,0.23,0.159,0.302
				c0.75,0.533,1.586,0.95,2.534,0.871c0.528-0.044,1.04-0.228,1.472-0.535c0.303-0.215,1.03-0.806,0.887-1.24
				c-0.044-0.132-0.164-0.235-0.301-0.258c-0.212-0.036-0.408,0.107-0.583,0.232c-0.478,0.344-1.042,0.685-1.619,0.824
				c-0.448,0.107-0.92,0.092-1.37,0.003c-0.231-0.046-0.457-0.112-0.677-0.195C12.946,34.472,12.829,34.42,12.723,34.406z"/>
			<path fill="#FFFFFF" d="M3.718,25.697c-0.193-0.078-0.389-0.13-0.557-0.157c-0.762-0.122-1.258,0.273-1.601,0.932
				c-0.576,1.109-0.621,2.442-0.516,3.661c0.051,0.594,0.054,0.908,0.532,1.306c0.646,0.538,3.113,1.562,3.077-0.131
				c-0.017-0.787,0.043-1.574,0.007-2.361c-0.032-0.707-0.204-1.38-0.055-2.085C4.726,26.292,4.233,25.904,3.718,25.697z"/>
			<path fill="#FFFFFF" d="M25.721,26.522c0.361-0.169,0.764-0.25,1.037-0.199c0.706,0.133,1.047,1.534,1.201,2.134
				c0.272,1.063,0.658,2.764-0.412,3.497c-0.632,0.433-2.636,1.15-2.601-0.319c0.017-0.725,0.099-3.39-0.036-4.039
				C24.817,27.145,25.231,26.752,25.721,26.522z"/>
			<path fill="none" stroke="#FFFFFF" stroke-width="2" stroke-linecap="round" stroke-miterlimit="10" d="M3.561,27.927
				c0-5.002,3.86-10.218,9.842-10.218S25,22.979,25.667,27.927"/>
		</g>
	</g>
	<g id="Layer_1_2_" display="inline">
		<g>
			<path fill="#3793D0" d="M32.407,21.417c0.243-0.14,0.425-0.214,0.546-0.22c0.121-0.006,0.31,0.054,0.565,0.182
				c0.307,0.154,0.518,0.425,0.633,0.815c0.115,0.39,0.192,1.071,0.23,2.042c0.038,1.137,0.092,1.706,0.163,1.706
				c0.07,0,0.482-0.268,1.236-0.805l2.741-1.86c0.779-0.511,1.278-0.817,1.495-0.92c0.217-0.102,0.498-0.153,0.843-0.153
				c0.332,0,0.556,0.022,0.671,0.067s0.249,0.163,0.402,0.355c0.141,0.166,0.23,0.307,0.268,0.422
				c0.038,0.115,0.045,0.275,0.019,0.479c-0.051,0.332-0.141,0.594-0.268,0.786c-0.103,0.154-1.01,0.76-2.722,1.821
				c-1.713,1.061-2.62,1.649-2.722,1.763c-0.141,0.154-0.17,0.297-0.086,0.431c0.083,0.134,0.297,0.304,0.642,0.508
				c0.281,0.153,1.195,0.786,2.741,1.898c1.546,1.112,2.562,1.866,3.048,2.262c0.37,0.281,0.626,0.607,0.767,0.978
				c0.089,0.268,0.134,0.457,0.134,0.566c0,0.108-0.064,0.303-0.192,0.584c-0.103,0.243-0.198,0.406-0.288,0.489
				c-0.09,0.083-0.23,0.144-0.422,0.182c-0.447,0.077-0.853,0.029-1.217-0.144s-1.025-0.629-1.984-1.37
				c-1.227-0.933-2.089-1.62-2.588-2.061c-0.498-0.441-1.048-0.891-1.649-1.351c-0.179-0.153-0.326-0.268-0.441-0.345
				s-0.211-0.134-0.288-0.173c-0.077-0.038-0.131-0.054-0.163-0.048c-0.032,0.006-0.054,0.035-0.067,0.086
				c-0.064,0.141-0.051,0.837,0.038,2.089c0.077,1.099,0.07,1.827-0.019,2.185c-0.09,0.358-0.333,0.632-0.729,0.824
				c-0.205,0.102-0.361,0.156-0.47,0.163c-0.109,0.006-0.265-0.023-0.47-0.086c-0.205-0.064-0.358-0.137-0.46-0.22
				c-0.103-0.083-0.198-0.192-0.288-0.326c-0.09-0.134-0.154-0.358-0.192-0.671s-0.071-0.661-0.096-1.045
				c-0.026-0.383-0.051-0.945-0.077-1.687c-0.051-1.342-0.048-3.22,0.01-5.636c0.057-2.415,0.131-3.77,0.22-4.064
				C31.966,21.762,32.126,21.596,32.407,21.417z"/>
			<path fill="#3793D0" d="M45.23,24.944c0.192-0.102,0.326-0.153,0.403-0.153s0.217,0.038,0.422,0.115
				c0.409,0.153,0.696,0.569,0.863,1.246c0.077,0.333,0.153,1.891,0.23,4.677c0.077,2.62,0.064,4.141-0.038,4.562
				c-0.077,0.256-0.237,0.466-0.479,0.632c-0.166,0.115-0.431,0.179-0.796,0.192c-0.364,0.012-0.617-0.038-0.757-0.154
				c-0.141-0.102-0.307-0.339-0.499-0.709c-0.141-0.281-0.22-0.626-0.239-1.035c-0.019-0.409-0.01-1.655,0.029-3.738
				c0.026-1.853,0.057-3.051,0.096-3.594c0.038-0.543,0.108-0.955,0.211-1.236C44.84,25.315,45.026,25.046,45.23,24.944z
				 M44.885,21.513c0.179-0.192,0.329-0.316,0.45-0.374c0.121-0.057,0.29-0.086,0.508-0.086c0.613,0,1.08,0.3,1.399,0.901
				c0.153,0.294,0.166,0.617,0.038,0.968c-0.128,0.352-0.345,0.61-0.652,0.776c-0.217,0.103-0.496,0.157-0.834,0.163
				c-0.339,0.007-0.578-0.041-0.719-0.144c-0.371-0.307-0.575-0.668-0.613-1.083C44.425,22.219,44.566,21.845,44.885,21.513z"/>
			<path fill="#3793D0" d="M56.444,21.302c0.243-0.294,0.537-0.425,0.882-0.393s0.607,0.214,0.786,0.546
				c0.115,0.23,0.214,1.112,0.297,2.645c0.083,1.533,0.125,3.31,0.125,5.329v2.664l0.479,0.23c0.524,0.256,0.84,0.617,0.949,1.083
				c0.108,0.466-0.003,0.949-0.336,1.447c-0.243,0.345-0.569,0.62-0.977,0.824c-0.409,0.204-0.978,0.364-1.706,0.479
				c-0.741,0.128-1.639,0.192-2.693,0.192s-1.856-0.064-2.406-0.192c-0.792-0.192-1.524-0.537-2.195-1.035s-1.166-1.067-1.486-1.706
				c-0.103-0.192-0.166-0.425-0.192-0.7s-0.038-0.757-0.038-1.447c0-0.818,0.019-1.335,0.057-1.553
				c0.038-0.217,0.166-0.537,0.383-0.958c0.281-0.524,0.709-1.074,1.285-1.649c0.575-0.575,1.137-1.009,1.687-1.304l0.824-0.441
				l3.469-0.019l0.153-1.399c0.089-0.92,0.169-1.534,0.24-1.84C56.102,21.8,56.239,21.532,56.444,21.302z M54.948,28.068
				c-0.422-0.217-0.799-0.326-1.131-0.326c-0.294,0-0.639,0.105-1.035,0.316s-0.786,0.502-1.169,0.872
				c-0.729,0.703-1.093,1.47-1.093,2.3c0,0.435,0.092,0.792,0.278,1.074c0.185,0.281,0.482,0.518,0.891,0.709
				c0.371,0.179,0.875,0.31,1.514,0.393s1.205,0.096,1.697,0.038c0.492-0.057,0.738-0.169,0.738-0.335
				c-0.013-0.153-0.026-0.978-0.038-2.473l-0.019-2.262L54.948,28.068z"/>
			<path fill="#3793D0" d="M65.124,23.952c0.088-0.011,0.215-0.022,0.38-0.033c0.473-0.044,0.944-0.06,1.413-0.05
				c0.468,0.011,0.912,0.052,1.33,0.124c0.419,0.072,0.851,0.234,1.297,0.487c0.446,0.254,0.884,0.59,1.314,1.008
				c0.738,0.749,1.261,1.515,1.57,2.297c0.308,0.783,0.43,1.647,0.364,2.595c-0.044,0.705-0.121,1.262-0.231,1.669
				c-0.176,0.65-0.554,1.278-1.132,1.884c-0.578,0.606-1.286,1.118-2.124,1.537c-0.474,0.232-0.815,0.377-1.024,0.438
				c-0.21,0.06-0.557,0.096-1.041,0.107c-1.366,0.066-2.608-0.248-3.726-0.942c-1.119-0.694-1.92-1.647-2.405-2.859
				c-0.143-0.364-0.229-0.672-0.256-0.925c-0.027-0.253-0.041-0.832-0.041-1.735V27.67l0.463-0.958
				c0.176-0.364,0.366-0.688,0.57-0.975c0.204-0.286,0.394-0.523,0.57-0.711c0.176-0.187,0.374-0.349,0.595-0.487
				c0.22-0.138,0.408-0.24,0.562-0.306s0.339-0.121,0.554-0.165c0.215-0.044,0.374-0.072,0.479-0.083
				c0.104-0.011,0.25-0.022,0.438-0.033C65.086,23.952,65.113,23.952,65.124,23.952z M68.231,26.761
				c-0.54-0.253-1.058-0.325-1.553-0.215c-0.496,0.11-0.892,0.38-1.19,0.81c-0.176,0.242-0.292,0.529-0.347,0.859
				c-0.055,0.331-0.077,0.614-0.066,0.851s-0.022,0.444-0.099,0.62c-0.077,0.176-0.215,0.264-0.413,0.264
				c-0.165,0-0.394-0.091-0.686-0.273c-0.292-0.182-0.499-0.361-0.62-0.537c-0.187-0.253-0.303-0.237-0.347,0.05
				c-0.088,0.485,0.044,1.157,0.396,2.016c0.033,0.099,0.072,0.198,0.116,0.297c0.253,0.529,0.523,0.923,0.81,1.181
				c0.287,0.259,0.688,0.471,1.206,0.636c0.661,0.209,1.215,0.295,1.661,0.256c0.446-0.038,1.022-0.223,1.727-0.553
				c0.231-0.11,0.482-0.336,0.752-0.678c0.27-0.341,0.471-0.683,0.603-1.024c0.319-0.848,0.286-1.719-0.099-2.611
				C69.697,27.819,69.08,27.169,68.231,26.761z"/>
			<path fill="#3793D0" d="M78.407,21.11c0.268,0.128,0.441,0.316,0.518,0.565c0.077,0.249,0.092,0.505,0.048,0.767
				c-0.045,0.262-0.109,0.652-0.192,1.169c-0.083,0.518-0.131,1-0.144,1.447l-0.019,0.939l5.31-0.096l0.46,0.46
				c0.192,0.192,0.316,0.352,0.374,0.479c0.057,0.128,0.086,0.32,0.086,0.575c0,0.256-0.029,0.447-0.086,0.575
				c-0.058,0.128-0.182,0.288-0.374,0.479l-0.46,0.46l-5.31-0.096l-0.038,0.403c-0.038,0.345,0.019,0.866,0.173,1.562
				c0.153,0.697,0.326,1.243,0.518,1.639c0.409,0.83,0.901,1.23,1.476,1.198c0.575-0.032,1.074-0.482,1.495-1.351
				c0.179-0.383,0.415-0.722,0.709-1.016s0.543-0.441,0.748-0.441c0.511,0,0.92,0.307,1.227,0.92
				c0.192,0.371,0.29,0.655,0.297,0.853c0.006,0.198-0.08,0.521-0.259,0.968c-0.192,0.537-0.511,1.035-0.958,1.495
				s-0.965,0.831-1.553,1.112c-0.46,0.217-0.786,0.345-0.977,0.383c-0.192,0.038-0.518,0.045-0.978,0.019
				c-0.69-0.038-1.307-0.201-1.85-0.489s-0.977-0.652-1.303-1.093c-0.326-0.441-0.604-0.923-0.834-1.447s-0.4-1.051-0.508-1.581
				c-0.109-0.53-0.195-1.016-0.259-1.457s-0.115-0.814-0.153-1.121c-0.038-0.307-0.077-0.479-0.115-0.518
				c-0.064-0.077-0.364-0.14-0.901-0.192c-0.55-0.064-0.936-0.188-1.16-0.374c-0.224-0.185-0.336-0.482-0.336-0.892
				c0-0.422,0.112-0.725,0.336-0.911c0.223-0.185,0.629-0.303,1.217-0.355c0.588-0.051,0.914-0.115,0.978-0.192
				c0.025-0.025,0.073-0.255,0.144-0.69c0.07-0.434,0.166-0.917,0.288-1.447c0.121-0.53,0.278-1.051,0.47-1.562
				s0.45-0.885,0.776-1.121C77.611,20.902,77.985,20.893,78.407,21.11z"/>
			<path fill="#3793D0" d="M89.053,21.981c0.541-0.141,1.124-0.197,1.748-0.168c0.624,0.03,1.112,0.133,1.465,0.309
				c0.388,0.2,0.774,0.494,1.156,0.883c0.382,0.388,0.65,0.748,0.803,1.077c0.259,0.589,0.418,1.115,0.477,1.58
				s0.076,1.321,0.053,2.569l-0.053,3.796l0.583,0.07c0.424,0.047,0.753,0.227,0.989,0.538c0.235,0.312,0.306,0.668,0.212,1.068
				c-0.13,0.483-0.683,0.93-1.66,1.342c-1.412,0.577-2.813,0.797-4.202,0.662c-1.389-0.135-2.442-0.603-3.16-1.404
				c-0.73-0.801-1.095-1.721-1.095-2.763s0.365-2.051,1.095-3.028c1.071-1.412,2.424-2.071,4.061-1.977
				c0.588,0.047,0.9,0.042,0.936-0.018c0.035-0.059,0.006-0.3-0.088-0.724c-0.059-0.259-0.132-0.468-0.221-0.627
				c-0.088-0.159-0.244-0.35-0.468-0.574c-0.271-0.271-0.465-0.433-0.583-0.486c-0.118-0.053-0.33-0.079-0.636-0.079
				c-0.435,0-0.9,0.086-1.395,0.256c-0.494,0.171-0.818,0.362-0.971,0.574c-0.377,0.518-0.806,0.671-1.289,0.459
				c-0.212-0.082-0.362-0.194-0.45-0.335c-0.088-0.141-0.133-0.341-0.133-0.6c0-0.447,0.276-0.906,0.83-1.377
				C87.611,22.534,88.276,22.193,89.053,21.981z M92.054,29.078c-0.412-0.212-0.859-0.25-1.342-0.115s-0.924,0.427-1.324,0.874
				c-0.271,0.294-0.45,0.55-0.538,0.768s-0.133,0.515-0.133,0.892c0,0.247,0.023,0.43,0.071,0.547
				c0.047,0.118,0.159,0.265,0.335,0.441c0.494,0.494,1.265,0.712,2.313,0.653l0.653-0.053l0.07-0.583
				c0.047-0.4,0.1-1.042,0.159-1.924l0.088-1.324L92.054,29.078z"/>
			<path fill="#3793D0" d="M98.438,24.944c0.192-0.102,0.326-0.153,0.403-0.153s0.217,0.038,0.422,0.115
				c0.409,0.153,0.696,0.569,0.863,1.246c0.077,0.333,0.153,1.891,0.23,4.677c0.077,2.62,0.064,4.141-0.038,4.562
				c-0.077,0.256-0.237,0.466-0.479,0.632c-0.166,0.115-0.431,0.179-0.796,0.192c-0.364,0.012-0.617-0.038-0.757-0.154
				c-0.141-0.102-0.307-0.339-0.498-0.709c-0.141-0.281-0.22-0.626-0.239-1.035s-0.01-1.655,0.029-3.738
				c0.026-1.853,0.057-3.051,0.096-3.594c0.038-0.543,0.108-0.955,0.211-1.236C98.048,25.315,98.233,25.046,98.438,24.944z
				 M98.093,21.513c0.179-0.192,0.329-0.316,0.45-0.374c0.121-0.057,0.29-0.086,0.508-0.086c0.613,0,1.08,0.3,1.399,0.901
				c0.153,0.294,0.166,0.617,0.038,0.968c-0.128,0.352-0.345,0.61-0.652,0.776c-0.217,0.103-0.496,0.157-0.834,0.163
				c-0.339,0.007-0.578-0.041-0.719-0.144c-0.371-0.307-0.575-0.668-0.613-1.083C97.633,22.219,97.773,21.845,98.093,21.513z"/>
			<path fill="#3793D0" d="M102.061,22.625c0.115-0.128,0.22-0.208,0.316-0.24s0.233-0.035,0.412-0.01
				c0.409,0.077,0.677,0.23,0.805,0.46s0.198,0.697,0.211,1.399c0.038,0.831,0.086,1.278,0.144,1.342
				c0.057,0.064,0.367-0.14,0.93-0.613c1.559-1.329,3.112-1.942,4.658-1.84c1.878,0.128,3.258,1.368,4.14,3.719
				c0.166,0.435,0.268,0.799,0.307,1.093c0.038,0.294,0.057,0.85,0.057,1.668c0.013,1.202-0.07,2.441-0.249,3.719
				c-0.141,0.92-0.243,1.489-0.307,1.706c-0.064,0.217-0.192,0.409-0.383,0.575c-0.371,0.345-0.843,0.447-1.418,0.307
				c-0.575-0.141-0.927-0.441-1.054-0.901c-0.128-0.473-0.007-1.757,0.364-3.853c0.141-0.945,0.16-1.805,0.058-2.578
				c-0.103-0.773-0.323-1.406-0.661-1.898c-0.339-0.492-0.745-0.738-1.217-0.738c-0.741,0-1.543,0.339-2.406,1.016
				c-0.863,0.678-1.543,1.502-2.041,2.473c-0.166,0.332-0.345,0.588-0.537,0.767c-0.115,0.103-0.182,0.246-0.201,0.431
				s-0.023,0.776-0.01,1.773c0,0.013,0,0.032,0,0.057c0.013,1.188-0.019,1.955-0.096,2.3c-0.077,0.345-0.262,0.594-0.556,0.748
				c-0.792,0.421-1.425,0.192-1.898-0.69c-0.103-0.192-0.169-0.479-0.201-0.863c-0.032-0.383-0.061-1.189-0.086-2.415
				c-0.026-1.623,0.01-3.281,0.105-4.974c0.096-1.693,0.214-2.732,0.355-3.115C101.728,23.104,101.881,22.829,102.061,22.625z"/>
			<path fill="#3793D0" d="M118.047,25.04c-0.051,0-0.134,0.07-0.249,0.211s-0.252,0.358-0.412,0.652s-0.304,0.661-0.431,1.102
				c-0.128,0.441-0.224,0.958-0.288,1.553c-0.064,0.594-0.064,1.268,0,2.022c0.077,0.895,0.121,1.719,0.134,2.473
				c0,0.511-0.016,0.843-0.048,0.997c-0.032,0.153-0.118,0.3-0.259,0.441c-0.166,0.166-0.364,0.268-0.594,0.307
				c-0.23,0.038-0.447,0-0.652-0.115c-0.102-0.064-0.185-0.125-0.249-0.182s-0.122-0.17-0.172-0.336
				c-0.051-0.166-0.09-0.345-0.115-0.537c-0.026-0.192-0.045-0.499-0.057-0.92c-0.013-0.422-0.023-0.869-0.029-1.342
				c-0.007-0.473-0.01-1.125-0.01-1.955v-4.255l0.326-0.632c0.294-0.588,0.635-1.131,1.025-1.629s0.712-0.817,0.968-0.958
				c0.409-0.204,0.901-0.275,1.476-0.211s1.022,0.243,1.342,0.537c0.192,0.166,0.47,0.53,0.834,1.093
				c0.364,0.562,0.623,1.029,0.776,1.399c0.153,0.358,0.284,0.537,0.393,0.537c0.108,0,0.214-0.179,0.316-0.537
				c0.102-0.358,0.307-0.831,0.613-1.418c0.307-0.588,0.537-0.952,0.69-1.093c0.102-0.089,0.259-0.192,0.47-0.307
				s0.482-0.23,0.814-0.345s0.719-0.166,1.16-0.153s0.866,0.115,1.275,0.307c0.92,0.435,1.607,1.418,2.061,2.952
				c0.453,1.533,0.738,3.866,0.853,6.997c0.038,0.946,0.048,1.546,0.029,1.802c-0.019,0.256-0.093,0.511-0.221,0.767
				c-0.345,0.69-0.894,0.907-1.648,0.652c-0.32-0.103-0.543-0.24-0.671-0.412c-0.128-0.173-0.22-0.441-0.278-0.805
				c-0.057-0.364-0.105-0.987-0.144-1.869c-0.064-1.598-0.211-3.08-0.441-4.447s-0.486-2.262-0.767-2.683l-0.23-0.345l-0.288,0.364
				c-0.268,0.319-0.565,1.077-0.891,2.272s-0.649,2.46-0.968,3.795c-0.32,1.336-0.569,2.221-0.748,2.655
				c-0.243,0.588-0.623,0.952-1.141,1.093c-0.518,0.14-0.981,0.006-1.39-0.403c-0.243-0.243-0.396-0.534-0.46-0.872
				c-0.064-0.338-0.128-1.217-0.192-2.636c-0.051-1.112-0.16-2.013-0.326-2.703c-0.128-0.601-0.333-1.23-0.613-1.888
				C118.341,25.369,118.149,25.04,118.047,25.04z"/>
			<path fill="#3793D0" d="M135.95,21.781c0.882-0.204,1.939-0.249,3.172-0.134s2.188,0.345,2.866,0.69
				c0.37,0.192,0.824,0.55,1.361,1.073c0.345,0.345,0.578,0.617,0.7,0.815c0.121,0.198,0.246,0.515,0.374,0.949
				c0.281,0.92,0.329,1.808,0.144,2.664c-0.185,0.856-0.553,1.476-1.102,1.86l-0.498,0.364l-4.62,0.019
				c-3.067,0.013-4.619,0.051-4.658,0.115c-0.064,0.09,0.041,0.361,0.316,0.815s0.533,0.789,0.776,1.006
				c0.294,0.256,0.677,0.498,1.15,0.728c0.332,0.153,0.616,0.246,0.853,0.278c0.236,0.032,0.706,0.048,1.409,0.048
				c0.703-0.013,1.367-0.064,1.993-0.153c0.626-0.089,1.115-0.192,1.467-0.307c0.351-0.115,0.712-0.223,1.083-0.326
				c0.37-0.102,0.639-0.159,0.805-0.172c0.166-0.013,0.383,0.032,0.652,0.134c0.294,0.153,0.486,0.467,0.575,0.939
				c0.089,0.473,0.038,0.888-0.153,1.246c-0.103,0.217-0.364,0.441-0.786,0.671s-0.78,0.345-1.073,0.345
				c-0.077,0-0.361,0.045-0.853,0.134s-1.023,0.182-1.591,0.278c-0.569,0.096-1.24,0.147-2.013,0.153s-1.518-0.051-2.233-0.173
				c-0.716-0.122-1.441-0.374-2.176-0.757c-0.735-0.384-1.358-0.895-1.869-1.534c-0.422-0.524-0.719-0.978-0.892-1.361
				c-0.172-0.383-0.31-0.92-0.412-1.61c-0.103-0.677-0.125-1.396-0.067-2.156c0.057-0.76,0.182-1.415,0.374-1.965
				c0.179-0.537,0.463-1.089,0.853-1.658c0.39-0.568,0.808-1.064,1.256-1.486c0.499-0.46,0.942-0.798,1.332-1.016
				C134.854,22.081,135.35,21.909,135.95,21.781z M141.049,25.366c-0.294-0.217-0.661-0.406-1.102-0.566
				c-0.441-0.159-0.943-0.275-1.505-0.345c-0.562-0.07-1.153,0-1.773,0.211s-1.173,0.566-1.658,1.064
				c-0.333,0.345-0.607,0.726-0.824,1.141c-0.217,0.416-0.281,0.674-0.192,0.776c0.089,0.09,1.364,0.083,3.824-0.019
				s3.754-0.204,3.882-0.307c0.192-0.153,0.214-0.453,0.067-0.901C141.621,25.973,141.381,25.622,141.049,25.366z"/>
			<path fill="#3793D0" d="M146.301,22.625c0.115-0.128,0.22-0.208,0.316-0.24s0.233-0.035,0.412-0.01
				c0.409,0.077,0.677,0.23,0.805,0.46c0.128,0.23,0.198,0.697,0.211,1.399c0.038,0.831,0.086,1.278,0.144,1.342
				c0.057,0.064,0.367-0.14,0.93-0.613c1.559-1.329,3.112-1.942,4.658-1.84c1.878,0.128,3.258,1.368,4.14,3.719
				c0.166,0.435,0.268,0.799,0.307,1.093c0.038,0.294,0.057,0.85,0.057,1.668c0.013,1.202-0.07,2.441-0.249,3.719
				c-0.141,0.92-0.243,1.489-0.307,1.706c-0.064,0.217-0.192,0.409-0.383,0.575c-0.371,0.345-0.843,0.447-1.418,0.307
				c-0.575-0.141-0.927-0.441-1.054-0.901c-0.128-0.473-0.007-1.757,0.364-3.853c0.141-0.945,0.16-1.805,0.058-2.578
				c-0.103-0.773-0.323-1.406-0.661-1.898c-0.339-0.492-0.745-0.738-1.217-0.738c-0.741,0-1.543,0.339-2.406,1.016
				c-0.863,0.678-1.543,1.502-2.041,2.473c-0.166,0.332-0.345,0.588-0.537,0.767c-0.115,0.103-0.182,0.246-0.201,0.431
				s-0.023,0.776-0.01,1.773c0,0.013,0,0.032,0,0.057c0.013,1.188-0.019,1.955-0.096,2.3c-0.077,0.345-0.262,0.594-0.556,0.748
				c-0.792,0.421-1.425,0.192-1.898-0.69c-0.103-0.192-0.169-0.479-0.201-0.863c-0.032-0.383-0.061-1.189-0.086-2.415
				c-0.026-1.623,0.01-3.281,0.105-4.974c0.096-1.693,0.214-2.732,0.355-3.115C145.969,23.104,146.122,22.829,146.301,22.625z"/>
			<path fill="#3793D0" d="M164.185,21.11c0.268,0.128,0.441,0.316,0.518,0.565c0.077,0.249,0.092,0.505,0.048,0.767
				c-0.045,0.262-0.109,0.652-0.192,1.169c-0.083,0.518-0.131,1-0.144,1.447l-0.019,0.939l5.31-0.096l0.46,0.46
				c0.192,0.192,0.316,0.352,0.374,0.479c0.057,0.128,0.086,0.32,0.086,0.575c0,0.256-0.029,0.447-0.086,0.575
				c-0.058,0.128-0.182,0.288-0.374,0.479l-0.46,0.46l-5.31-0.096l-0.038,0.403c-0.038,0.345,0.019,0.866,0.173,1.562
				c0.153,0.697,0.326,1.243,0.518,1.639c0.409,0.83,0.901,1.23,1.476,1.198c0.575-0.032,1.074-0.482,1.495-1.351
				c0.179-0.383,0.415-0.722,0.709-1.016s0.543-0.441,0.748-0.441c0.511,0,0.92,0.307,1.227,0.92
				c0.192,0.371,0.29,0.655,0.297,0.853c0.006,0.198-0.08,0.521-0.259,0.968c-0.192,0.537-0.511,1.035-0.958,1.495
				c-0.447,0.46-0.965,0.831-1.553,1.112c-0.46,0.217-0.786,0.345-0.977,0.383c-0.192,0.038-0.518,0.045-0.978,0.019
				c-0.69-0.038-1.307-0.201-1.85-0.489s-0.977-0.652-1.303-1.093c-0.326-0.441-0.604-0.923-0.834-1.447s-0.4-1.051-0.508-1.581
				c-0.109-0.53-0.195-1.016-0.259-1.457s-0.115-0.814-0.153-1.121c-0.038-0.307-0.077-0.479-0.115-0.518
				c-0.064-0.077-0.364-0.14-0.901-0.192c-0.55-0.064-0.936-0.188-1.16-0.374c-0.224-0.185-0.336-0.482-0.336-0.892
				c0-0.422,0.112-0.725,0.336-0.911c0.223-0.185,0.629-0.303,1.217-0.355c0.588-0.051,0.914-0.115,0.978-0.192
				c0.025-0.025,0.073-0.255,0.144-0.69c0.07-0.434,0.166-0.917,0.288-1.447c0.121-0.53,0.278-1.051,0.47-1.562
				s0.45-0.885,0.776-1.121C163.39,20.902,163.764,20.893,164.185,21.11z"/>
			<g>
				<path fill="#6DBE47" d="M35.283,17.94c-0.416,0.197-0.852,0.329-1.286,0.475c-0.338,0.114-0.692,0.361-1.051,0.171
					c-1.037-0.547,0.335-1.684,0.808-2.032c0.493-0.359,1.006-1.208,1.527-1.39c0.578-0.202,1.191,0.002,1.419,0.573
					c0.137,0.343,0.055,0.802-0.161,1.171C36.271,17.368,35.805,17.693,35.283,17.94z"/>
				<path fill="#6DBE47" d="M13.891,15.124c-0.205-0.352-0.284-0.791-0.153-1.119c0.217-0.546,0.802-0.741,1.355-0.548
					c0.497,0.174,0.987,0.985,1.458,1.328c0.452,0.332,1.762,1.418,0.772,1.94c-0.343,0.181-0.681-0.055-1.003-0.164
					c-0.415-0.14-0.831-0.266-1.228-0.454C14.592,15.872,14.146,15.562,13.891,15.124z"/>
				<path fill="#6DBE47" d="M31.88,16.811c-0.171-0.764-0.424-1.516-0.661-2.26c-0.656-2.052-2.29-3.978-4.493-4.389
					c-0.77-0.143-1.564-0.087-2.331,0.081c-0.128,0.028-0.255,0.059-0.38,0.093c-1.022,0.275-2.115,0.678-3.044,1.182
					c-1.968,1.067-3.095,3.598-3.2,5.76c-0.02,0.418,0.005,0.84,0.071,1.266c0.431,0.225,0.966,0.447,1.341,0.78
					c-0.023-0.085-0.049-0.168-0.069-0.256c-0.347-1.529-0.162-2.962,0.555-4.3c0.462-0.844,2.154,0.081,2.905-0.248
					c0.642-0.281,0.372-1.488,1.042-1.581c0.249-0.035,0.491,0.078,0.719,0.184c0.868,0.404,1.764,0.748,2.68,1.027
					c0.325,0.099,0.692,0.186,0.989,0.022c0.218-0.121,0.351-0.359,0.402-0.603c0.041-0.194-0.054-0.646,0.09-0.795
					c0.216-0.224,0.555,0.186,0.671,0.36c0.655,0.983,1.031,2.088,1.278,3.235c0.173,0.93,0.197,1.7,0.07,2.309
					c-0.126,0.61-0.448,1.268-0.966,1.976c-0.662,0.902-1.301,1.54-1.919,1.914c-0.618,0.375-1.543,0.682-2.776,0.922
					c-0.275,0.052-0.613,0.042-1.012-0.028c0.142,0.123,0.277,0.267,0.398,0.444c0.134,0.196,0.132,0.47,0.032,0.694
					c1.6,0.128,3.215-0.251,4.608-1.218c1.773-1.232,2.949-3.291,3.064-5.451C31.965,17.474,31.944,17.101,31.88,16.811z"/>
				<g>
					<path fill="#6DBE47" d="M22.784,16.561c-0.288,0.603,0.277,1.276,0.858,1.403c0.61,0.134,1.369-0.266,1.188-0.979
						c-0.061-0.241-0.221-0.448-0.411-0.608C23.861,15.908,23.147,15.8,22.784,16.561z"/>
				</g>
				<g>
					<path fill="#6DBE47" d="M26.949,17.435c0.339,0.115,0.697,0.06,0.938-0.21c0.088-0.099,0.152-0.225,0.15-0.357
						c-0.002-0.137-0.194-0.298-0.264-0.416c-0.145-0.245-0.223-0.451-0.517-0.514c-0.256-0.055-0.565,0.07-0.712,0.287
						C26.376,16.474,26.067,17.137,26.949,17.435z"/>
				</g>
				<path fill="#6DBE47" d="M24.673,20.439c-0.179,0.007-0.249,0.237-0.104,0.343c0.316,0.232,0.654,0.432,1.022,0.563
					c0.54,0.192,1.155,0.223,1.676-0.015c0.599-0.273,0.962-0.829,1.18-1.429c0.058-0.16-0.107-0.312-0.26-0.237
					c-0.312,0.152-0.802,0.351-1.461,0.499C25.856,20.359,25.132,20.422,24.673,20.439z"/>
			</g>
			<path fill="#F15842" d="M12.076,20.281c0.143-0.018,0.349-0.036,0.618-0.054c0.771-0.071,1.537-0.098,2.299-0.081
				c0.762,0.018,1.483,0.085,2.164,0.202s1.384,0.381,2.11,0.793c0.726,0.413,1.438,0.959,2.137,1.64
				c1.2,1.219,2.052,2.465,2.554,3.737c0.502,1.273,0.699,2.68,0.591,4.221c-0.072,1.147-0.197,2.052-0.376,2.715
				c-0.287,1.058-0.9,2.079-1.841,3.065s-2.093,1.819-3.455,2.5c-0.771,0.376-1.327,0.614-1.667,0.713
				c-0.341,0.098-0.905,0.157-1.694,0.175c-2.223,0.108-4.244-0.403-6.062-1.532c-1.819-1.129-3.123-2.679-3.912-4.651
				c-0.233-0.591-0.372-1.093-0.417-1.505c-0.045-0.412-0.067-1.353-0.067-2.823v-3.065l0.753-1.559
				c0.287-0.591,0.596-1.12,0.928-1.586C7.07,22.72,7.38,22.335,7.666,22.03c0.287-0.305,0.609-0.569,0.968-0.793
				c0.358-0.224,0.663-0.39,0.914-0.497c0.251-0.108,0.551-0.197,0.901-0.269c0.349-0.071,0.609-0.116,0.78-0.134
				c0.17-0.018,0.407-0.036,0.712-0.054C12.014,20.281,12.058,20.281,12.076,20.281z M20.33,24.054
				c-0.988-0.906-2.05-1.408-3.187-1.506c-1.138-0.097-2.17,0.215-3.097,0.936c-0.541,0.402-0.982,0.938-1.323,1.61
				s-0.579,1.266-0.714,1.781c-0.136,0.516-0.346,0.937-0.63,1.263s-0.639,0.423-1.064,0.289c-0.354-0.111-0.784-0.46-1.287-1.046
				c-0.504-0.586-0.827-1.109-0.968-1.569c-0.231-0.669-0.491-0.712-0.778-0.127c-0.515,0.981-0.684,2.511-0.506,4.591
				c0.004,0.235,0.02,0.473,0.048,0.716c0.188,1.305,0.501,2.331,0.942,3.079c0.44,0.748,1.16,1.474,2.159,2.176
				c1.277,0.894,2.407,1.45,3.39,1.667c0.983,0.218,2.341,0.209,4.076-0.025c0.57-0.08,1.259-0.396,2.068-0.947
				s1.47-1.148,1.983-1.792c1.256-1.604,1.771-3.493,1.544-5.667C22.76,27.308,21.875,25.499,20.33,24.054z"/>
			<g>
				<path fill="#F15842" d="M9.97,30.608c-0.079,0.664,0.447,1.186,1.025,1.381c0.275,0.093,0.563,0.056,0.844,0.051
					c0.652-0.013,1.197-0.535,1.197-1.197c0-0.643-0.544-1.21-1.197-1.197c-0.1,0.002-0.079-0.235-0.673-0.235
					C10.456,29.411,10.047,29.961,9.97,30.608L9.97,30.608z"/>
			</g>
			<g>
				<path fill="#F15842" d="M17.884,30.648c0.582,0,1.104-0.272,1.335-0.813c0.084-0.198,0.117-0.426,0.045-0.628
					c-0.075-0.21-0.454-0.358-0.623-0.503c-0.352-0.302-0.579-0.578-1.065-0.522c-0.424,0.049-0.834,0.402-0.946,0.814
					C16.5,29.468,16.37,30.649,17.884,30.648z"/>
			</g>
			<path fill="#F15842" d="M12.723,34.406c-0.089-0.011-0.169,0.005-0.209,0.088c-0.054,0.112,0.058,0.23,0.159,0.302
				c0.75,0.533,1.586,0.95,2.534,0.871c0.528-0.044,1.04-0.228,1.472-0.535c0.303-0.215,1.03-0.806,0.887-1.24
				c-0.044-0.132-0.164-0.235-0.301-0.258c-0.212-0.036-0.408,0.107-0.583,0.232c-0.478,0.344-1.042,0.685-1.619,0.824
				c-0.448,0.107-0.92,0.092-1.37,0.003c-0.231-0.046-0.457-0.112-0.677-0.195C12.946,34.472,12.829,34.42,12.723,34.406z"/>
			<path fill="#F15842" d="M3.718,25.697c-0.193-0.078-0.389-0.13-0.557-0.157c-0.762-0.122-1.258,0.273-1.601,0.932
				c-0.576,1.109-0.621,2.442-0.516,3.661c0.051,0.594,0.054,0.908,0.532,1.306c0.646,0.538,3.113,1.562,3.077-0.131
				c-0.017-0.787,0.043-1.574,0.007-2.361c-0.032-0.707-0.204-1.38-0.055-2.085C4.726,26.292,4.233,25.904,3.718,25.697z"/>
			<path fill="#F15842" d="M25.721,26.522c0.361-0.169,0.764-0.25,1.037-0.199c0.706,0.133,1.047,1.534,1.201,2.134
				c0.272,1.063,0.658,2.764-0.412,3.497c-0.632,0.433-2.636,1.15-2.601-0.319c0.017-0.725,0.099-3.39-0.036-4.039
				C24.817,27.145,25.231,26.752,25.721,26.522z"/>
			<path fill="none" stroke="#F15842" stroke-width="2" stroke-linecap="round" stroke-miterlimit="10" d="M3.561,27.927
				c0-5.002,3.86-10.218,9.842-10.218S25,22.979,25.667,27.927"/>
		</g>
	</g>
</g>
<g id="Layer_2_1_" display="none">
	<rect x="-0.061" y="-2" display="inline" fill="#BFA01B" stroke="#000000" stroke-miterlimit="10" width="182.875" height="53.5"/>
</g>
<g id="Layer_1_5_" display="none">
	<g display="inline">
		<path fill="#FFFFFF" d="M32.407,21.417c0.243-0.14,0.425-0.214,0.546-0.22c0.121-0.006,0.31,0.054,0.565,0.182
			c0.307,0.154,0.518,0.425,0.633,0.815c0.115,0.39,0.192,1.071,0.23,2.042c0.038,1.137,0.092,1.706,0.163,1.706
			c0.07,0,0.482-0.268,1.236-0.805l2.741-1.86c0.779-0.511,1.278-0.817,1.495-0.92c0.217-0.102,0.498-0.153,0.843-0.153
			c0.332,0,0.556,0.022,0.671,0.067s0.249,0.163,0.402,0.355c0.141,0.166,0.23,0.307,0.268,0.422
			c0.038,0.115,0.045,0.275,0.019,0.479c-0.051,0.332-0.141,0.594-0.268,0.786c-0.103,0.154-1.01,0.76-2.722,1.821
			c-1.713,1.061-2.62,1.649-2.722,1.763c-0.141,0.154-0.17,0.297-0.086,0.431c0.083,0.134,0.297,0.304,0.642,0.508
			c0.281,0.153,1.195,0.786,2.741,1.898c1.546,1.112,2.562,1.866,3.048,2.262c0.37,0.281,0.626,0.607,0.767,0.978
			c0.089,0.268,0.134,0.457,0.134,0.566c0,0.108-0.064,0.303-0.192,0.584c-0.103,0.243-0.198,0.406-0.288,0.489
			c-0.09,0.083-0.23,0.144-0.422,0.182c-0.447,0.077-0.853,0.029-1.217-0.144s-1.025-0.629-1.984-1.37
			c-1.227-0.933-2.089-1.62-2.588-2.061c-0.498-0.441-1.048-0.891-1.649-1.351c-0.179-0.153-0.326-0.268-0.441-0.345
			s-0.211-0.134-0.288-0.173c-0.077-0.038-0.131-0.054-0.163-0.048c-0.032,0.006-0.054,0.035-0.067,0.086
			c-0.064,0.141-0.051,0.837,0.038,2.089c0.077,1.099,0.07,1.827-0.019,2.185c-0.09,0.358-0.333,0.632-0.729,0.824
			c-0.205,0.102-0.361,0.156-0.47,0.163c-0.109,0.006-0.265-0.023-0.47-0.086c-0.205-0.064-0.358-0.137-0.46-0.22
			c-0.103-0.083-0.198-0.192-0.288-0.326c-0.09-0.134-0.154-0.358-0.192-0.671s-0.071-0.661-0.096-1.045
			c-0.026-0.383-0.051-0.945-0.077-1.687c-0.051-1.342-0.048-3.22,0.01-5.636c0.057-2.415,0.131-3.77,0.22-4.064
			C31.966,21.762,32.126,21.596,32.407,21.417z"/>
		<path fill="#FFFFFF" d="M45.23,24.944c0.192-0.102,0.326-0.153,0.403-0.153s0.217,0.038,0.422,0.115
			c0.409,0.153,0.696,0.569,0.863,1.246c0.077,0.333,0.153,1.891,0.23,4.677c0.077,2.62,0.064,4.141-0.038,4.562
			c-0.077,0.256-0.237,0.466-0.479,0.632c-0.166,0.115-0.431,0.179-0.796,0.192c-0.364,0.012-0.617-0.038-0.757-0.154
			c-0.141-0.102-0.307-0.339-0.499-0.709c-0.141-0.281-0.22-0.626-0.239-1.035c-0.019-0.409-0.01-1.655,0.029-3.738
			c0.026-1.853,0.057-3.051,0.096-3.594c0.038-0.543,0.108-0.955,0.211-1.236C44.84,25.315,45.026,25.046,45.23,24.944z
			 M44.885,21.513c0.179-0.192,0.329-0.316,0.45-0.374c0.121-0.057,0.29-0.086,0.508-0.086c0.613,0,1.08,0.3,1.399,0.901
			c0.153,0.294,0.166,0.617,0.038,0.968c-0.128,0.352-0.345,0.61-0.652,0.776c-0.217,0.103-0.496,0.157-0.834,0.163
			c-0.339,0.007-0.578-0.041-0.719-0.144c-0.371-0.307-0.575-0.668-0.613-1.083C44.425,22.219,44.566,21.845,44.885,21.513z"/>
		<path fill="#FFFFFF" d="M56.444,21.302c0.243-0.294,0.537-0.425,0.882-0.393s0.607,0.214,0.786,0.546
			c0.115,0.23,0.214,1.112,0.297,2.645c0.083,1.533,0.125,3.31,0.125,5.329v2.664l0.479,0.23c0.524,0.256,0.84,0.617,0.949,1.083
			c0.108,0.466-0.003,0.949-0.336,1.447c-0.243,0.345-0.569,0.62-0.977,0.824c-0.409,0.204-0.978,0.364-1.706,0.479
			c-0.741,0.128-1.639,0.192-2.693,0.192s-1.856-0.064-2.406-0.192c-0.792-0.192-1.524-0.537-2.195-1.035s-1.166-1.067-1.486-1.706
			c-0.103-0.192-0.166-0.425-0.192-0.7s-0.038-0.757-0.038-1.447c0-0.818,0.019-1.335,0.057-1.553
			c0.038-0.217,0.166-0.537,0.383-0.958c0.281-0.524,0.709-1.074,1.285-1.649c0.575-0.575,1.137-1.009,1.687-1.304l0.824-0.441
			l3.469-0.019l0.153-1.399c0.089-0.92,0.169-1.534,0.24-1.84C56.102,21.8,56.239,21.532,56.444,21.302z M54.948,28.068
			c-0.422-0.217-0.799-0.326-1.131-0.326c-0.294,0-0.639,0.105-1.035,0.316s-0.786,0.502-1.169,0.872
			c-0.729,0.703-1.093,1.47-1.093,2.3c0,0.435,0.092,0.792,0.278,1.074c0.185,0.281,0.482,0.518,0.891,0.709
			c0.371,0.179,0.875,0.31,1.514,0.393s1.205,0.096,1.697,0.038c0.492-0.057,0.738-0.169,0.738-0.335
			c-0.013-0.153-0.026-0.978-0.038-2.473l-0.019-2.262L54.948,28.068z"/>
		<path fill="#FFFFFF" d="M65.124,23.952c0.088-0.011,0.215-0.022,0.38-0.033c0.473-0.044,0.944-0.06,1.413-0.05
			c0.468,0.011,0.912,0.052,1.33,0.124c0.419,0.072,0.851,0.234,1.297,0.487c0.446,0.254,0.884,0.59,1.314,1.008
			c0.738,0.749,1.261,1.515,1.57,2.297c0.308,0.783,0.43,1.647,0.364,2.595c-0.044,0.705-0.121,1.262-0.231,1.669
			c-0.176,0.65-0.554,1.278-1.132,1.884c-0.578,0.606-1.286,1.118-2.124,1.537c-0.474,0.232-0.815,0.377-1.024,0.438
			c-0.21,0.06-0.557,0.096-1.041,0.107c-1.366,0.066-2.608-0.248-3.726-0.942c-1.119-0.694-1.92-1.647-2.405-2.859
			c-0.143-0.364-0.229-0.672-0.256-0.925c-0.027-0.253-0.041-0.832-0.041-1.735V27.67l0.463-0.958
			c0.176-0.364,0.366-0.688,0.57-0.975c0.204-0.286,0.394-0.523,0.57-0.711c0.176-0.187,0.374-0.349,0.595-0.487
			c0.22-0.138,0.408-0.24,0.562-0.306s0.339-0.121,0.554-0.165c0.215-0.044,0.374-0.072,0.479-0.083
			c0.104-0.011,0.25-0.022,0.438-0.033C65.086,23.952,65.113,23.952,65.124,23.952z M68.231,26.761
			c-0.54-0.253-1.058-0.325-1.553-0.215c-0.496,0.11-0.892,0.38-1.19,0.81c-0.176,0.242-0.292,0.529-0.347,0.859
			c-0.055,0.331-0.077,0.614-0.066,0.851s-0.022,0.444-0.099,0.62c-0.077,0.176-0.215,0.264-0.413,0.264
			c-0.165,0-0.394-0.091-0.686-0.273c-0.292-0.182-0.499-0.361-0.62-0.537c-0.187-0.253-0.303-0.237-0.347,0.05
			c-0.088,0.485,0.044,1.157,0.396,2.016c0.033,0.099,0.072,0.198,0.116,0.297c0.253,0.529,0.523,0.923,0.81,1.181
			c0.287,0.259,0.688,0.471,1.206,0.636c0.661,0.209,1.215,0.295,1.661,0.256c0.446-0.038,1.022-0.223,1.727-0.553
			c0.231-0.11,0.482-0.336,0.752-0.678c0.27-0.341,0.471-0.683,0.603-1.024c0.319-0.848,0.286-1.719-0.099-2.611
			C69.697,27.819,69.08,27.169,68.231,26.761z"/>
		<path fill="#FFFFFF" d="M78.407,21.11c0.268,0.128,0.441,0.316,0.518,0.565c0.077,0.249,0.092,0.505,0.048,0.767
			c-0.045,0.262-0.109,0.652-0.192,1.169c-0.083,0.518-0.131,1-0.144,1.447l-0.019,0.939l5.31-0.096l0.46,0.46
			c0.192,0.192,0.316,0.352,0.374,0.479c0.057,0.128,0.086,0.32,0.086,0.575c0,0.256-0.029,0.447-0.086,0.575
			c-0.058,0.128-0.182,0.288-0.374,0.479l-0.46,0.46l-5.31-0.096l-0.038,0.403c-0.038,0.345,0.019,0.866,0.173,1.562
			c0.153,0.697,0.326,1.243,0.518,1.639c0.409,0.83,0.901,1.23,1.476,1.198c0.575-0.032,1.074-0.482,1.495-1.351
			c0.179-0.383,0.415-0.722,0.709-1.016s0.543-0.441,0.748-0.441c0.511,0,0.92,0.307,1.227,0.92c0.192,0.371,0.29,0.655,0.297,0.853
			c0.006,0.198-0.08,0.521-0.259,0.968c-0.192,0.537-0.511,1.035-0.958,1.495s-0.965,0.831-1.553,1.112
			c-0.46,0.217-0.786,0.345-0.977,0.383c-0.192,0.038-0.518,0.045-0.978,0.019c-0.69-0.038-1.307-0.201-1.85-0.489
			s-0.977-0.652-1.303-1.093c-0.326-0.441-0.604-0.923-0.834-1.447s-0.4-1.051-0.508-1.581c-0.109-0.53-0.195-1.016-0.259-1.457
			s-0.115-0.814-0.153-1.121c-0.038-0.307-0.077-0.479-0.115-0.518c-0.064-0.077-0.364-0.14-0.901-0.192
			c-0.55-0.064-0.936-0.188-1.16-0.374c-0.224-0.185-0.336-0.482-0.336-0.892c0-0.422,0.112-0.725,0.336-0.911
			c0.223-0.185,0.629-0.303,1.217-0.355c0.588-0.051,0.914-0.115,0.978-0.192c0.025-0.025,0.073-0.255,0.144-0.69
			c0.07-0.434,0.166-0.917,0.288-1.447c0.121-0.53,0.278-1.051,0.47-1.562s0.45-0.885,0.776-1.121
			C77.611,20.902,77.985,20.893,78.407,21.11z"/>
		<path fill="#FFFFFF" d="M89.053,21.981c0.541-0.141,1.124-0.197,1.748-0.168c0.624,0.03,1.112,0.133,1.465,0.309
			c0.388,0.2,0.774,0.494,1.156,0.883c0.382,0.388,0.65,0.748,0.803,1.077c0.259,0.589,0.418,1.115,0.477,1.58
			s0.076,1.321,0.053,2.569l-0.053,3.796l0.583,0.07c0.424,0.047,0.753,0.227,0.989,0.538c0.235,0.312,0.306,0.668,0.212,1.068
			c-0.13,0.483-0.683,0.93-1.66,1.342c-1.412,0.577-2.813,0.797-4.202,0.662c-1.389-0.135-2.442-0.603-3.16-1.404
			c-0.73-0.801-1.095-1.721-1.095-2.763s0.365-2.051,1.095-3.028c1.071-1.412,2.424-2.071,4.061-1.977
			c0.588,0.047,0.9,0.042,0.936-0.018c0.035-0.059,0.006-0.3-0.088-0.724c-0.059-0.259-0.132-0.468-0.221-0.627
			c-0.088-0.159-0.244-0.35-0.468-0.574c-0.271-0.271-0.465-0.433-0.583-0.486c-0.118-0.053-0.33-0.079-0.636-0.079
			c-0.435,0-0.9,0.086-1.395,0.256c-0.494,0.171-0.818,0.362-0.971,0.574c-0.377,0.518-0.806,0.671-1.289,0.459
			c-0.212-0.082-0.362-0.194-0.45-0.335c-0.088-0.141-0.133-0.341-0.133-0.6c0-0.447,0.276-0.906,0.83-1.377
			C87.611,22.534,88.276,22.193,89.053,21.981z M92.054,29.078c-0.412-0.212-0.859-0.25-1.342-0.115s-0.924,0.427-1.324,0.874
			c-0.271,0.294-0.45,0.55-0.538,0.768s-0.133,0.515-0.133,0.892c0,0.247,0.023,0.43,0.071,0.547
			c0.047,0.118,0.159,0.265,0.335,0.441c0.494,0.494,1.265,0.712,2.313,0.653l0.653-0.053l0.07-0.583
			c0.047-0.4,0.1-1.042,0.159-1.924l0.088-1.324L92.054,29.078z"/>
		<path fill="#FFFFFF" d="M98.438,24.944c0.192-0.102,0.326-0.153,0.403-0.153s0.217,0.038,0.422,0.115
			c0.409,0.153,0.696,0.569,0.863,1.246c0.077,0.333,0.153,1.891,0.23,4.677c0.077,2.62,0.064,4.141-0.038,4.562
			c-0.077,0.256-0.237,0.466-0.479,0.632c-0.166,0.115-0.431,0.179-0.796,0.192c-0.364,0.012-0.617-0.038-0.757-0.154
			c-0.141-0.102-0.307-0.339-0.498-0.709c-0.141-0.281-0.22-0.626-0.239-1.035s-0.01-1.655,0.029-3.738
			c0.026-1.853,0.057-3.051,0.096-3.594c0.038-0.543,0.108-0.955,0.211-1.236C98.048,25.315,98.233,25.046,98.438,24.944z
			 M98.093,21.513c0.179-0.192,0.329-0.316,0.45-0.374c0.121-0.057,0.29-0.086,0.508-0.086c0.613,0,1.08,0.3,1.399,0.901
			c0.153,0.294,0.166,0.617,0.038,0.968c-0.128,0.352-0.345,0.61-0.652,0.776c-0.217,0.103-0.496,0.157-0.834,0.163
			c-0.339,0.007-0.578-0.041-0.719-0.144c-0.371-0.307-0.575-0.668-0.613-1.083C97.633,22.219,97.773,21.845,98.093,21.513z"/>
		<path fill="#FFFFFF" d="M102.061,22.625c0.115-0.128,0.22-0.208,0.316-0.24s0.233-0.035,0.412-0.01
			c0.409,0.077,0.677,0.23,0.805,0.46s0.198,0.697,0.211,1.399c0.038,0.831,0.086,1.278,0.144,1.342
			c0.057,0.064,0.367-0.14,0.93-0.613c1.559-1.329,3.112-1.942,4.658-1.84c1.878,0.128,3.258,1.368,4.14,3.719
			c0.166,0.435,0.268,0.799,0.307,1.093c0.038,0.294,0.057,0.85,0.057,1.668c0.013,1.202-0.07,2.441-0.249,3.719
			c-0.141,0.92-0.243,1.489-0.307,1.706c-0.064,0.217-0.192,0.409-0.383,0.575c-0.371,0.345-0.843,0.447-1.418,0.307
			c-0.575-0.141-0.927-0.441-1.054-0.901c-0.128-0.473-0.007-1.757,0.364-3.853c0.141-0.945,0.16-1.805,0.058-2.578
			c-0.103-0.773-0.323-1.406-0.661-1.898c-0.339-0.492-0.745-0.738-1.217-0.738c-0.741,0-1.543,0.339-2.406,1.016
			c-0.863,0.678-1.543,1.502-2.041,2.473c-0.166,0.332-0.345,0.588-0.537,0.767c-0.115,0.103-0.182,0.246-0.201,0.431
			s-0.023,0.776-0.01,1.773c0,0.013,0,0.032,0,0.057c0.013,1.188-0.019,1.955-0.096,2.3c-0.077,0.345-0.262,0.594-0.556,0.748
			c-0.792,0.421-1.425,0.192-1.898-0.69c-0.103-0.192-0.169-0.479-0.201-0.863c-0.032-0.383-0.061-1.189-0.086-2.415
			c-0.026-1.623,0.01-3.281,0.105-4.974c0.096-1.693,0.214-2.732,0.355-3.115C101.728,23.104,101.881,22.829,102.061,22.625z"/>
		<path fill="#FFFFFF" d="M118.047,25.04c-0.051,0-0.134,0.07-0.249,0.211s-0.252,0.358-0.412,0.652s-0.304,0.661-0.431,1.102
			c-0.128,0.441-0.224,0.958-0.288,1.553c-0.064,0.594-0.064,1.268,0,2.022c0.077,0.895,0.121,1.719,0.134,2.473
			c0,0.511-0.016,0.843-0.048,0.997c-0.032,0.153-0.118,0.3-0.259,0.441c-0.166,0.166-0.364,0.268-0.594,0.307
			c-0.23,0.038-0.447,0-0.652-0.115c-0.102-0.064-0.185-0.125-0.249-0.182s-0.122-0.17-0.172-0.336
			c-0.051-0.166-0.09-0.345-0.115-0.537c-0.026-0.192-0.045-0.499-0.057-0.92c-0.013-0.422-0.023-0.869-0.029-1.342
			c-0.007-0.473-0.01-1.125-0.01-1.955v-4.255l0.326-0.632c0.294-0.588,0.635-1.131,1.025-1.629s0.712-0.817,0.968-0.958
			c0.409-0.204,0.901-0.275,1.476-0.211s1.022,0.243,1.342,0.537c0.192,0.166,0.47,0.53,0.834,1.093
			c0.364,0.562,0.623,1.029,0.776,1.399c0.153,0.358,0.284,0.537,0.393,0.537c0.108,0,0.214-0.179,0.316-0.537
			c0.102-0.358,0.307-0.831,0.613-1.418c0.307-0.588,0.537-0.952,0.69-1.093c0.102-0.089,0.259-0.192,0.47-0.307
			s0.482-0.23,0.814-0.345s0.719-0.166,1.16-0.153s0.866,0.115,1.275,0.307c0.92,0.435,1.607,1.418,2.061,2.952
			c0.453,1.533,0.738,3.866,0.853,6.997c0.038,0.946,0.048,1.546,0.029,1.802c-0.019,0.256-0.093,0.511-0.221,0.767
			c-0.345,0.69-0.894,0.907-1.648,0.652c-0.32-0.103-0.543-0.24-0.671-0.412c-0.128-0.173-0.22-0.441-0.278-0.805
			c-0.057-0.364-0.105-0.987-0.144-1.869c-0.064-1.598-0.211-3.08-0.441-4.447s-0.486-2.262-0.767-2.683l-0.23-0.345l-0.288,0.364
			c-0.268,0.319-0.565,1.077-0.891,2.272s-0.649,2.46-0.968,3.795c-0.32,1.336-0.569,2.221-0.748,2.655
			c-0.243,0.588-0.623,0.952-1.141,1.093c-0.518,0.14-0.981,0.006-1.39-0.403c-0.243-0.243-0.396-0.534-0.46-0.872
			c-0.064-0.338-0.128-1.217-0.192-2.636c-0.051-1.112-0.16-2.013-0.326-2.703c-0.128-0.601-0.333-1.23-0.613-1.888
			C118.341,25.369,118.149,25.04,118.047,25.04z"/>
		<path fill="#FFFFFF" d="M135.95,21.781c0.882-0.204,1.939-0.249,3.172-0.134s2.188,0.345,2.866,0.69
			c0.37,0.192,0.824,0.55,1.361,1.073c0.345,0.345,0.578,0.617,0.7,0.815c0.121,0.198,0.246,0.515,0.374,0.949
			c0.281,0.92,0.329,1.808,0.144,2.664c-0.185,0.856-0.553,1.476-1.102,1.86l-0.498,0.364l-4.62,0.019
			c-3.067,0.013-4.619,0.051-4.658,0.115c-0.064,0.09,0.041,0.361,0.316,0.815s0.533,0.789,0.776,1.006
			c0.294,0.256,0.677,0.498,1.15,0.728c0.332,0.153,0.616,0.246,0.853,0.278c0.236,0.032,0.706,0.048,1.409,0.048
			c0.703-0.013,1.367-0.064,1.993-0.153c0.626-0.089,1.115-0.192,1.467-0.307c0.351-0.115,0.712-0.223,1.083-0.326
			c0.37-0.102,0.639-0.159,0.805-0.172c0.166-0.013,0.383,0.032,0.652,0.134c0.294,0.153,0.486,0.467,0.575,0.939
			c0.089,0.473,0.038,0.888-0.153,1.246c-0.103,0.217-0.364,0.441-0.786,0.671s-0.78,0.345-1.073,0.345
			c-0.077,0-0.361,0.045-0.853,0.134s-1.023,0.182-1.591,0.278c-0.569,0.096-1.24,0.147-2.013,0.153s-1.518-0.051-2.233-0.173
			c-0.716-0.122-1.441-0.374-2.176-0.757c-0.735-0.384-1.358-0.895-1.869-1.534c-0.422-0.524-0.719-0.978-0.892-1.361
			c-0.172-0.383-0.31-0.92-0.412-1.61c-0.103-0.677-0.125-1.396-0.067-2.156c0.057-0.76,0.182-1.415,0.374-1.965
			c0.179-0.537,0.463-1.089,0.853-1.658c0.39-0.568,0.808-1.064,1.256-1.486c0.499-0.46,0.942-0.798,1.332-1.016
			C134.854,22.081,135.35,21.909,135.95,21.781z M141.049,25.366c-0.294-0.217-0.661-0.406-1.102-0.566
			c-0.441-0.159-0.943-0.275-1.505-0.345c-0.562-0.07-1.153,0-1.773,0.211s-1.173,0.566-1.658,1.064
			c-0.333,0.345-0.607,0.726-0.824,1.141c-0.217,0.416-0.281,0.674-0.192,0.776c0.089,0.09,1.364,0.083,3.824-0.019
			s3.754-0.204,3.882-0.307c0.192-0.153,0.214-0.453,0.067-0.901C141.621,25.973,141.381,25.622,141.049,25.366z"/>
		<path fill="#FFFFFF" d="M146.301,22.625c0.115-0.128,0.22-0.208,0.316-0.24s0.233-0.035,0.412-0.01
			c0.409,0.077,0.677,0.23,0.805,0.46c0.128,0.23,0.198,0.697,0.211,1.399c0.038,0.831,0.086,1.278,0.144,1.342
			c0.057,0.064,0.367-0.14,0.93-0.613c1.559-1.329,3.112-1.942,4.658-1.84c1.878,0.128,3.258,1.368,4.14,3.719
			c0.166,0.435,0.268,0.799,0.307,1.093c0.038,0.294,0.057,0.85,0.057,1.668c0.013,1.202-0.07,2.441-0.249,3.719
			c-0.141,0.92-0.243,1.489-0.307,1.706c-0.064,0.217-0.192,0.409-0.383,0.575c-0.371,0.345-0.843,0.447-1.418,0.307
			c-0.575-0.141-0.927-0.441-1.054-0.901c-0.128-0.473-0.007-1.757,0.364-3.853c0.141-0.945,0.16-1.805,0.058-2.578
			c-0.103-0.773-0.323-1.406-0.661-1.898c-0.339-0.492-0.745-0.738-1.217-0.738c-0.741,0-1.543,0.339-2.406,1.016
			c-0.863,0.678-1.543,1.502-2.041,2.473c-0.166,0.332-0.345,0.588-0.537,0.767c-0.115,0.103-0.182,0.246-0.201,0.431
			s-0.023,0.776-0.01,1.773c0,0.013,0,0.032,0,0.057c0.013,1.188-0.019,1.955-0.096,2.3c-0.077,0.345-0.262,0.594-0.556,0.748
			c-0.792,0.421-1.425,0.192-1.898-0.69c-0.103-0.192-0.169-0.479-0.201-0.863c-0.032-0.383-0.061-1.189-0.086-2.415
			c-0.026-1.623,0.01-3.281,0.105-4.974c0.096-1.693,0.214-2.732,0.355-3.115C145.969,23.104,146.122,22.829,146.301,22.625z"/>
		<path fill="#FFFFFF" d="M164.185,21.11c0.268,0.128,0.441,0.316,0.518,0.565c0.077,0.249,0.092,0.505,0.048,0.767
			c-0.045,0.262-0.109,0.652-0.192,1.169c-0.083,0.518-0.131,1-0.144,1.447l-0.019,0.939l5.31-0.096l0.46,0.46
			c0.192,0.192,0.316,0.352,0.374,0.479c0.057,0.128,0.086,0.32,0.086,0.575c0,0.256-0.029,0.447-0.086,0.575
			c-0.058,0.128-0.182,0.288-0.374,0.479l-0.46,0.46l-5.31-0.096l-0.038,0.403c-0.038,0.345,0.019,0.866,0.173,1.562
			c0.153,0.697,0.326,1.243,0.518,1.639c0.409,0.83,0.901,1.23,1.476,1.198c0.575-0.032,1.074-0.482,1.495-1.351
			c0.179-0.383,0.415-0.722,0.709-1.016s0.543-0.441,0.748-0.441c0.511,0,0.92,0.307,1.227,0.92c0.192,0.371,0.29,0.655,0.297,0.853
			c0.006,0.198-0.08,0.521-0.259,0.968c-0.192,0.537-0.511,1.035-0.958,1.495c-0.447,0.46-0.965,0.831-1.553,1.112
			c-0.46,0.217-0.786,0.345-0.977,0.383c-0.192,0.038-0.518,0.045-0.978,0.019c-0.69-0.038-1.307-0.201-1.85-0.489
			s-0.977-0.652-1.303-1.093c-0.326-0.441-0.604-0.923-0.834-1.447s-0.4-1.051-0.508-1.581c-0.109-0.53-0.195-1.016-0.259-1.457
			s-0.115-0.814-0.153-1.121c-0.038-0.307-0.077-0.479-0.115-0.518c-0.064-0.077-0.364-0.14-0.901-0.192
			c-0.55-0.064-0.936-0.188-1.16-0.374c-0.224-0.185-0.336-0.482-0.336-0.892c0-0.422,0.112-0.725,0.336-0.911
			c0.223-0.185,0.629-0.303,1.217-0.355c0.588-0.051,0.914-0.115,0.978-0.192c0.025-0.025,0.073-0.255,0.144-0.69
			c0.07-0.434,0.166-0.917,0.288-1.447c0.121-0.53,0.278-1.051,0.47-1.562s0.45-0.885,0.776-1.121
			C163.39,20.902,163.764,20.893,164.185,21.11z"/>
		<g>
			<path fill="#FFFFFF" d="M35.283,17.94c-0.416,0.197-0.852,0.329-1.286,0.475c-0.338,0.114-0.692,0.361-1.051,0.171
				c-1.037-0.547,0.335-1.684,0.808-2.032c0.493-0.359,1.006-1.208,1.527-1.39c0.578-0.202,1.191,0.002,1.419,0.573
				c0.137,0.343,0.055,0.802-0.161,1.171C36.271,17.368,35.805,17.693,35.283,17.94z"/>
			<path fill="#FFFFFF" d="M13.891,15.124c-0.205-0.352-0.284-0.791-0.153-1.119c0.217-0.546,0.802-0.741,1.355-0.548
				c0.497,0.174,0.987,0.985,1.458,1.328c0.452,0.332,1.762,1.418,0.772,1.94c-0.343,0.181-0.681-0.055-1.003-0.164
				c-0.415-0.14-0.831-0.266-1.228-0.454C14.592,15.872,14.146,15.562,13.891,15.124z"/>
			<path fill="#FFFFFF" d="M31.88,16.811c-0.171-0.764-0.424-1.516-0.661-2.26c-0.656-2.052-2.29-3.978-4.493-4.389
				c-0.77-0.143-1.564-0.087-2.331,0.081c-0.128,0.028-0.255,0.059-0.38,0.093c-1.022,0.275-2.115,0.678-3.044,1.182
				c-1.968,1.067-3.095,3.598-3.2,5.76c-0.02,0.418,0.005,0.84,0.071,1.266c0.431,0.225,0.966,0.447,1.341,0.78
				c-0.023-0.085-0.049-0.168-0.069-0.256c-0.347-1.529-0.162-2.962,0.555-4.3c0.462-0.844,2.154,0.081,2.905-0.248
				c0.642-0.281,0.372-1.488,1.042-1.581c0.249-0.035,0.491,0.078,0.719,0.184c0.868,0.404,1.764,0.748,2.68,1.027
				c0.325,0.099,0.692,0.186,0.989,0.022c0.218-0.121,0.351-0.359,0.402-0.603c0.041-0.194-0.054-0.646,0.09-0.795
				c0.216-0.224,0.555,0.186,0.671,0.36c0.655,0.983,1.031,2.088,1.278,3.235c0.173,0.93,0.197,1.7,0.07,2.309
				c-0.126,0.61-0.448,1.268-0.966,1.976c-0.662,0.902-1.301,1.54-1.919,1.914c-0.618,0.375-1.543,0.682-2.776,0.922
				c-0.275,0.052-0.613,0.042-1.012-0.028c0.142,0.123,0.277,0.267,0.398,0.444c0.134,0.196,0.132,0.47,0.032,0.694
				c1.6,0.128,3.215-0.251,4.608-1.218c1.773-1.232,2.949-3.291,3.064-5.451C31.965,17.474,31.944,17.101,31.88,16.811z"/>
			<g>
				<path fill="#FFFFFF" d="M22.784,16.561c-0.288,0.603,0.277,1.276,0.858,1.403c0.61,0.134,1.369-0.266,1.188-0.979
					c-0.061-0.241-0.221-0.448-0.411-0.608C23.861,15.908,23.147,15.8,22.784,16.561z"/>
			</g>
			<g>
				<path fill="#FFFFFF" d="M26.949,17.435c0.339,0.115,0.697,0.06,0.938-0.21c0.088-0.099,0.152-0.225,0.15-0.357
					c-0.002-0.137-0.194-0.298-0.264-0.416c-0.145-0.245-0.223-0.451-0.517-0.514c-0.256-0.055-0.565,0.07-0.712,0.287
					C26.376,16.474,26.067,17.137,26.949,17.435z"/>
			</g>
			<path fill="#FFFFFF" d="M24.673,20.439c-0.179,0.007-0.249,0.237-0.104,0.343c0.316,0.232,0.654,0.432,1.022,0.563
				c0.54,0.192,1.155,0.223,1.676-0.015c0.599-0.273,0.962-0.829,1.18-1.429c0.058-0.16-0.107-0.312-0.26-0.237
				c-0.312,0.152-0.802,0.351-1.461,0.499C25.856,20.359,25.132,20.422,24.673,20.439z"/>
		</g>
		<path fill="#FFFFFF" d="M12.076,20.281c0.143-0.018,0.349-0.036,0.618-0.054c0.771-0.071,1.537-0.098,2.299-0.081
			c0.762,0.018,1.483,0.085,2.164,0.202s1.384,0.381,2.11,0.793c0.726,0.413,1.438,0.959,2.137,1.64
			c1.2,1.219,2.052,2.465,2.554,3.737c0.502,1.273,0.699,2.68,0.591,4.221c-0.072,1.147-0.197,2.052-0.376,2.715
			c-0.287,1.058-0.9,2.079-1.841,3.065s-2.093,1.819-3.455,2.5c-0.771,0.376-1.327,0.614-1.667,0.713
			c-0.341,0.098-0.905,0.157-1.694,0.175c-2.223,0.108-4.244-0.403-6.062-1.532c-1.819-1.129-3.123-2.679-3.912-4.651
			c-0.233-0.591-0.372-1.093-0.417-1.505c-0.045-0.412-0.067-1.353-0.067-2.823v-3.065l0.753-1.559
			c0.287-0.591,0.596-1.12,0.928-1.586C7.07,22.72,7.38,22.335,7.666,22.03c0.287-0.305,0.609-0.569,0.968-0.793
			c0.358-0.224,0.663-0.39,0.914-0.497c0.251-0.108,0.551-0.197,0.901-0.269c0.349-0.071,0.609-0.116,0.78-0.134
			c0.17-0.018,0.407-0.036,0.712-0.054C12.014,20.281,12.058,20.281,12.076,20.281z M20.33,24.054
			c-0.988-0.906-2.05-1.408-3.187-1.506c-1.138-0.097-2.17,0.215-3.097,0.936c-0.541,0.402-0.982,0.938-1.323,1.61
			s-0.579,1.266-0.714,1.781c-0.136,0.516-0.346,0.937-0.63,1.263s-0.639,0.423-1.064,0.289c-0.354-0.111-0.784-0.46-1.287-1.046
			c-0.504-0.586-0.827-1.109-0.968-1.569c-0.231-0.669-0.491-0.712-0.778-0.127c-0.515,0.981-0.684,2.511-0.506,4.591
			c0.004,0.235,0.02,0.473,0.048,0.716c0.188,1.305,0.501,2.331,0.942,3.079c0.44,0.748,1.16,1.474,2.159,2.176
			c1.277,0.894,2.407,1.45,3.39,1.667c0.983,0.218,2.341,0.209,4.076-0.025c0.57-0.08,1.259-0.396,2.068-0.947
			s1.47-1.148,1.983-1.792c1.256-1.604,1.771-3.493,1.544-5.667C22.76,27.308,21.875,25.499,20.33,24.054z"/>
		<g>
			<path fill="#FFFFFF" d="M9.97,30.608c-0.079,0.664,0.447,1.186,1.025,1.381c0.275,0.093,0.563,0.056,0.844,0.051
				c0.652-0.013,1.197-0.535,1.197-1.197c0-0.643-0.544-1.21-1.197-1.197c-0.1,0.002-0.079-0.235-0.673-0.235
				C10.456,29.411,10.047,29.961,9.97,30.608L9.97,30.608z"/>
		</g>
		<g>
			<path fill="#FFFFFF" d="M17.884,30.648c0.582,0,1.104-0.272,1.335-0.813c0.084-0.198,0.117-0.426,0.045-0.628
				c-0.075-0.21-0.454-0.358-0.623-0.503c-0.352-0.302-0.579-0.578-1.065-0.522c-0.424,0.049-0.834,0.402-0.946,0.814
				C16.5,29.468,16.37,30.649,17.884,30.648z"/>
		</g>
		<path fill="#FFFFFF" d="M12.723,34.406c-0.089-0.011-0.169,0.005-0.209,0.088c-0.054,0.112,0.058,0.23,0.159,0.302
			c0.75,0.533,1.586,0.95,2.534,0.871c0.528-0.044,1.04-0.228,1.472-0.535c0.303-0.215,1.03-0.806,0.887-1.24
			c-0.044-0.132-0.164-0.235-0.301-0.258c-0.212-0.036-0.408,0.107-0.583,0.232c-0.478,0.344-1.042,0.685-1.619,0.824
			c-0.448,0.107-0.92,0.092-1.37,0.003c-0.231-0.046-0.457-0.112-0.677-0.195C12.946,34.472,12.829,34.42,12.723,34.406z"/>
		<path fill="#FFFFFF" d="M3.718,25.697c-0.193-0.078-0.389-0.13-0.557-0.157c-0.762-0.122-1.258,0.273-1.601,0.932
			c-0.576,1.109-0.621,2.442-0.516,3.661c0.051,0.594,0.054,0.908,0.532,1.306c0.646,0.538,3.113,1.562,3.077-0.131
			c-0.017-0.787,0.043-1.574,0.007-2.361c-0.032-0.707-0.204-1.38-0.055-2.085C4.726,26.292,4.233,25.904,3.718,25.697z"/>
		<path fill="#FFFFFF" d="M25.721,26.522c0.361-0.169,0.764-0.25,1.037-0.199c0.706,0.133,1.047,1.534,1.201,2.134
			c0.272,1.063,0.658,2.764-0.412,3.497c-0.632,0.433-2.636,1.15-2.601-0.319c0.017-0.725,0.099-3.39-0.036-4.039
			C24.817,27.145,25.231,26.752,25.721,26.522z"/>
		<path fill="none" stroke="#FFFFFF" stroke-width="2" stroke-linecap="round" stroke-miterlimit="10" d="M3.561,27.927
			c0-5.002,3.86-10.218,9.842-10.218S25,22.979,25.667,27.927"/>
	</g>
</g>
<path fill="#3B92CF" d="M32.407,21.417c0.243-0.14,0.425-0.214,0.546-0.22c0.121-0.006,0.31,0.054,0.565,0.182
	c0.307,0.154,0.518,0.425,0.633,0.815c0.115,0.39,0.192,1.071,0.23,2.042c0.038,1.137,0.092,1.706,0.163,1.706
	c0.07,0,0.482-0.268,1.236-0.805l2.741-1.86c0.779-0.511,1.278-0.817,1.495-0.92c0.217-0.102,0.498-0.153,0.843-0.153
	c0.332,0,0.556,0.022,0.671,0.067s0.249,0.163,0.402,0.355c0.141,0.166,0.23,0.307,0.268,0.422c0.038,0.115,0.045,0.275,0.019,0.479
	c-0.051,0.332-0.141,0.594-0.268,0.786c-0.103,0.154-1.01,0.76-2.722,1.821c-1.713,1.061-2.62,1.649-2.722,1.763
	c-0.141,0.154-0.17,0.297-0.086,0.431c0.083,0.134,0.297,0.304,0.642,0.508c0.281,0.153,1.195,0.786,2.741,1.898
	c1.546,1.112,2.562,1.866,3.048,2.262c0.37,0.281,0.626,0.607,0.767,0.978c0.089,0.268,0.134,0.457,0.134,0.566
	c0,0.108-0.064,0.303-0.192,0.584c-0.103,0.243-0.198,0.406-0.288,0.489c-0.09,0.083-0.23,0.144-0.422,0.182
	c-0.447,0.077-0.853,0.029-1.217-0.144s-1.025-0.629-1.984-1.37c-1.227-0.933-2.089-1.62-2.588-2.061
	c-0.498-0.441-1.048-0.891-1.649-1.351c-0.179-0.153-0.326-0.268-0.441-0.345s-0.211-0.134-0.288-0.173
	c-0.077-0.038-0.131-0.054-0.163-0.048c-0.032,0.006-0.054,0.035-0.067,0.086c-0.064,0.141-0.051,0.837,0.038,2.089
	c0.077,1.099,0.07,1.827-0.019,2.185c-0.09,0.358-0.333,0.632-0.729,0.824c-0.205,0.102-0.361,0.156-0.47,0.163
	c-0.109,0.006-0.265-0.023-0.47-0.086c-0.205-0.064-0.358-0.137-0.46-0.22c-0.103-0.083-0.198-0.192-0.288-0.326
	c-0.09-0.134-0.154-0.358-0.192-0.671s-0.071-0.661-0.096-1.045c-0.026-0.383-0.051-0.945-0.077-1.687
	c-0.051-1.342-0.048-3.22,0.01-5.636c0.057-2.415,0.131-3.77,0.22-4.064C31.966,21.762,32.126,21.596,32.407,21.417z"/>
<path fill="#3B92CF" d="M45.23,24.944c0.192-0.102,0.326-0.153,0.403-0.153s0.217,0.038,0.422,0.115
	c0.409,0.153,0.696,0.569,0.863,1.246c0.077,0.333,0.153,1.891,0.23,4.677c0.077,2.62,0.064,4.141-0.038,4.562
	c-0.077,0.256-0.237,0.466-0.479,0.632c-0.166,0.115-0.431,0.179-0.796,0.192c-0.364,0.012-0.617-0.038-0.757-0.154
	c-0.141-0.102-0.307-0.339-0.499-0.709c-0.141-0.281-0.22-0.626-0.239-1.035c-0.019-0.409-0.01-1.655,0.029-3.738
	c0.026-1.853,0.057-3.051,0.096-3.594c0.038-0.543,0.108-0.955,0.211-1.236C44.84,25.315,45.026,25.046,45.23,24.944z
	 M44.885,21.513c0.179-0.192,0.329-0.316,0.45-0.374c0.121-0.057,0.29-0.086,0.508-0.086c0.613,0,1.08,0.3,1.399,0.901
	c0.153,0.294,0.166,0.617,0.038,0.968c-0.128,0.352-0.345,0.61-0.652,0.776c-0.217,0.103-0.496,0.157-0.834,0.163
	c-0.339,0.007-0.578-0.041-0.719-0.144c-0.371-0.307-0.575-0.668-0.613-1.083C44.425,22.219,44.566,21.845,44.885,21.513z"/>
<path fill="#3B92CF" d="M56.444,21.302c0.243-0.294,0.537-0.425,0.882-0.393s0.607,0.214,0.786,0.546
	c0.115,0.23,0.214,1.112,0.297,2.645c0.083,1.533,0.125,3.31,0.125,5.329v2.664l0.479,0.23c0.524,0.256,0.84,0.617,0.949,1.083
	c0.108,0.466-0.003,0.949-0.336,1.447c-0.243,0.345-0.569,0.62-0.977,0.824c-0.409,0.204-0.978,0.364-1.706,0.479
	c-0.741,0.128-1.639,0.192-2.693,0.192s-1.856-0.064-2.406-0.192c-0.792-0.192-1.524-0.537-2.195-1.035s-1.166-1.067-1.486-1.706
	c-0.103-0.192-0.166-0.425-0.192-0.7s-0.038-0.757-0.038-1.447c0-0.818,0.019-1.335,0.057-1.553
	c0.038-0.217,0.166-0.537,0.383-0.958c0.281-0.524,0.709-1.074,1.285-1.649c0.575-0.575,1.137-1.009,1.687-1.304l0.824-0.441
	l3.469-0.019l0.153-1.399c0.089-0.92,0.169-1.534,0.24-1.84C56.102,21.8,56.239,21.532,56.444,21.302z M54.948,28.068
	c-0.422-0.217-0.799-0.326-1.131-0.326c-0.294,0-0.639,0.105-1.035,0.316s-0.786,0.502-1.169,0.872
	c-0.729,0.703-1.093,1.47-1.093,2.3c0,0.435,0.092,0.792,0.278,1.074c0.185,0.281,0.482,0.518,0.891,0.709
	c0.371,0.179,0.875,0.31,1.514,0.393s1.205,0.096,1.697,0.038c0.492-0.057,0.738-0.169,0.738-0.335
	c-0.013-0.153-0.026-0.978-0.038-2.473l-0.019-2.262L54.948,28.068z"/>
<path fill="#3B92CF" d="M65.124,23.952c0.088-0.011,0.215-0.022,0.38-0.033c0.473-0.044,0.944-0.06,1.413-0.05
	c0.468,0.011,0.912,0.052,1.33,0.124c0.419,0.072,0.851,0.234,1.297,0.487c0.446,0.254,0.884,0.59,1.314,1.008
	c0.738,0.749,1.261,1.515,1.57,2.297c0.308,0.783,0.43,1.647,0.364,2.595c-0.044,0.705-0.121,1.262-0.231,1.669
	c-0.176,0.65-0.554,1.278-1.132,1.884c-0.578,0.606-1.286,1.118-2.124,1.537c-0.474,0.232-0.815,0.377-1.024,0.438
	c-0.21,0.06-0.557,0.096-1.041,0.107c-1.366,0.066-2.608-0.248-3.726-0.942c-1.119-0.694-1.92-1.647-2.405-2.859
	c-0.143-0.364-0.229-0.672-0.256-0.925c-0.027-0.253-0.041-0.832-0.041-1.735V27.67l0.463-0.958c0.176-0.364,0.366-0.688,0.57-0.975
	c0.204-0.286,0.394-0.523,0.57-0.711c0.176-0.187,0.374-0.349,0.595-0.487c0.22-0.138,0.408-0.24,0.562-0.306
	s0.339-0.121,0.554-0.165c0.215-0.044,0.374-0.072,0.479-0.083c0.104-0.011,0.25-0.022,0.438-0.033
	C65.086,23.952,65.113,23.952,65.124,23.952z M68.231,26.761c-0.54-0.253-1.058-0.325-1.553-0.215c-0.496,0.11-0.892,0.38-1.19,0.81
	c-0.176,0.242-0.292,0.529-0.347,0.859c-0.055,0.331-0.077,0.614-0.066,0.851s-0.022,0.444-0.099,0.62
	c-0.077,0.176-0.215,0.264-0.413,0.264c-0.165,0-0.394-0.091-0.686-0.273c-0.292-0.182-0.499-0.361-0.62-0.537
	c-0.187-0.253-0.303-0.237-0.347,0.05c-0.088,0.485,0.044,1.157,0.396,2.016c0.033,0.099,0.072,0.198,0.116,0.297
	c0.253,0.529,0.523,0.923,0.81,1.181c0.287,0.259,0.688,0.471,1.206,0.636c0.661,0.209,1.215,0.295,1.661,0.256
	c0.446-0.038,1.022-0.223,1.727-0.553c0.231-0.11,0.482-0.336,0.752-0.678c0.27-0.341,0.471-0.683,0.603-1.024
	c0.319-0.848,0.286-1.719-0.099-2.611C69.697,27.819,69.08,27.169,68.231,26.761z"/>
<path fill="#3B92CF" d="M78.407,21.11c0.268,0.128,0.441,0.316,0.518,0.565c0.077,0.249,0.092,0.505,0.048,0.767
	c-0.045,0.262-0.109,0.652-0.192,1.169c-0.083,0.518-0.131,1-0.144,1.447l-0.019,0.939l5.31-0.096l0.46,0.46
	c0.192,0.192,0.316,0.352,0.374,0.479c0.057,0.128,0.086,0.32,0.086,0.575c0,0.256-0.029,0.447-0.086,0.575
	c-0.058,0.128-0.182,0.288-0.374,0.479l-0.46,0.46l-5.31-0.096l-0.038,0.403c-0.038,0.345,0.019,0.866,0.173,1.562
	c0.153,0.697,0.326,1.243,0.518,1.639c0.409,0.83,0.901,1.23,1.476,1.198c0.575-0.032,1.074-0.482,1.495-1.351
	c0.179-0.383,0.415-0.722,0.709-1.016s0.543-0.441,0.748-0.441c0.511,0,0.92,0.307,1.227,0.92c0.192,0.371,0.29,0.655,0.297,0.853
	c0.006,0.198-0.08,0.521-0.259,0.968c-0.192,0.537-0.511,1.035-0.958,1.495s-0.965,0.831-1.553,1.112
	c-0.46,0.217-0.786,0.345-0.977,0.383c-0.192,0.038-0.518,0.045-0.978,0.019c-0.69-0.038-1.307-0.201-1.85-0.489
	s-0.977-0.652-1.303-1.093c-0.326-0.441-0.604-0.923-0.834-1.447s-0.4-1.051-0.508-1.581c-0.109-0.53-0.195-1.016-0.259-1.457
	s-0.115-0.814-0.153-1.121c-0.038-0.307-0.077-0.479-0.115-0.518c-0.064-0.077-0.364-0.14-0.901-0.192
	c-0.55-0.064-0.936-0.188-1.16-0.374c-0.224-0.185-0.336-0.482-0.336-0.892c0-0.422,0.112-0.725,0.336-0.911
	c0.223-0.185,0.629-0.303,1.217-0.355c0.588-0.051,0.914-0.115,0.978-0.192c0.025-0.025,0.073-0.255,0.144-0.69
	c0.07-0.434,0.166-0.917,0.288-1.447c0.121-0.53,0.278-1.051,0.47-1.562s0.45-0.885,0.776-1.121
	C77.611,20.902,77.985,20.893,78.407,21.11z"/>
<path fill="#3B92CF" d="M89.053,21.981c0.541-0.141,1.124-0.197,1.748-0.168c0.624,0.03,1.112,0.133,1.465,0.309
	c0.388,0.2,0.774,0.494,1.156,0.883c0.382,0.388,0.65,0.748,0.803,1.077c0.259,0.589,0.418,1.115,0.477,1.58
	s0.076,1.321,0.053,2.569l-0.053,3.796l0.583,0.07c0.424,0.047,0.753,0.227,0.989,0.538c0.235,0.312,0.306,0.668,0.212,1.068
	c-0.13,0.483-0.683,0.93-1.66,1.342c-1.412,0.577-2.813,0.797-4.202,0.662c-1.389-0.135-2.442-0.603-3.16-1.404
	c-0.73-0.801-1.095-1.721-1.095-2.763s0.365-2.051,1.095-3.028c1.071-1.412,2.424-2.071,4.061-1.977
	c0.588,0.047,0.9,0.042,0.936-0.018c0.035-0.059,0.006-0.3-0.088-0.724c-0.059-0.259-0.132-0.468-0.221-0.627
	c-0.088-0.159-0.244-0.35-0.468-0.574c-0.271-0.271-0.465-0.433-0.583-0.486c-0.118-0.053-0.33-0.079-0.636-0.079
	c-0.435,0-0.9,0.086-1.395,0.256c-0.494,0.171-0.818,0.362-0.971,0.574c-0.377,0.518-0.806,0.671-1.289,0.459
	c-0.212-0.082-0.362-0.194-0.45-0.335c-0.088-0.141-0.133-0.341-0.133-0.6c0-0.447,0.276-0.906,0.83-1.377
	C87.611,22.534,88.276,22.193,89.053,21.981z M92.054,29.078c-0.412-0.212-0.859-0.25-1.342-0.115s-0.924,0.427-1.324,0.874
	c-0.271,0.294-0.45,0.55-0.538,0.768s-0.133,0.515-0.133,0.892c0,0.247,0.023,0.43,0.071,0.547c0.047,0.118,0.159,0.265,0.335,0.441
	c0.494,0.494,1.265,0.712,2.313,0.653l0.653-0.053l0.07-0.583c0.047-0.4,0.1-1.042,0.159-1.924l0.088-1.324L92.054,29.078z"/>
<path fill="#3B92CF" d="M98.438,24.944c0.192-0.102,0.326-0.153,0.403-0.153s0.217,0.038,0.422,0.115
	c0.409,0.153,0.696,0.569,0.863,1.246c0.077,0.333,0.153,1.891,0.23,4.677c0.077,2.62,0.064,4.141-0.038,4.562
	c-0.077,0.256-0.237,0.466-0.479,0.632c-0.166,0.115-0.431,0.179-0.796,0.192c-0.364,0.012-0.617-0.038-0.757-0.154
	c-0.141-0.102-0.307-0.339-0.498-0.709c-0.141-0.281-0.22-0.626-0.239-1.035s-0.01-1.655,0.029-3.738
	c0.026-1.853,0.057-3.051,0.096-3.594c0.038-0.543,0.108-0.955,0.211-1.236C98.048,25.315,98.233,25.046,98.438,24.944z
	 M98.093,21.513c0.179-0.192,0.329-0.316,0.45-0.374c0.121-0.057,0.29-0.086,0.508-0.086c0.613,0,1.08,0.3,1.399,0.901
	c0.153,0.294,0.166,0.617,0.038,0.968c-0.128,0.352-0.345,0.61-0.652,0.776c-0.217,0.103-0.496,0.157-0.834,0.163
	c-0.339,0.007-0.578-0.041-0.719-0.144c-0.371-0.307-0.575-0.668-0.613-1.083C97.633,22.219,97.773,21.845,98.093,21.513z"/>
<path fill="#3B92CF" d="M102.061,22.625c0.115-0.128,0.22-0.208,0.316-0.24s0.233-0.035,0.412-0.01
	c0.409,0.077,0.677,0.23,0.805,0.46s0.198,0.697,0.211,1.399c0.038,0.831,0.086,1.278,0.144,1.342
	c0.057,0.064,0.367-0.14,0.93-0.613c1.559-1.329,3.112-1.942,4.658-1.84c1.878,0.128,3.258,1.368,4.14,3.719
	c0.166,0.435,0.268,0.799,0.307,1.093c0.038,0.294,0.057,0.85,0.057,1.668c0.013,1.202-0.07,2.441-0.249,3.719
	c-0.141,0.92-0.243,1.489-0.307,1.706c-0.064,0.217-0.192,0.409-0.383,0.575c-0.371,0.345-0.843,0.447-1.418,0.307
	c-0.575-0.141-0.927-0.441-1.054-0.901c-0.128-0.473-0.007-1.757,0.364-3.853c0.141-0.945,0.16-1.805,0.058-2.578
	c-0.103-0.773-0.323-1.406-0.661-1.898c-0.339-0.492-0.745-0.738-1.217-0.738c-0.741,0-1.543,0.339-2.406,1.016
	c-0.863,0.678-1.543,1.502-2.041,2.473c-0.166,0.332-0.345,0.588-0.537,0.767c-0.115,0.103-0.182,0.246-0.201,0.431
	s-0.023,0.776-0.01,1.773c0,0.013,0,0.032,0,0.057c0.013,1.188-0.019,1.955-0.096,2.3c-0.077,0.345-0.262,0.594-0.556,0.748
	c-0.792,0.421-1.425,0.192-1.898-0.69c-0.103-0.192-0.169-0.479-0.201-0.863c-0.032-0.383-0.061-1.189-0.086-2.415
	c-0.026-1.623,0.01-3.281,0.105-4.974c0.096-1.693,0.214-2.732,0.355-3.115C101.728,23.104,101.881,22.829,102.061,22.625z"/>
<path fill="#3B92CF" d="M118.047,25.04c-0.051,0-0.134,0.07-0.249,0.211s-0.252,0.358-0.412,0.652s-0.304,0.661-0.431,1.102
	c-0.128,0.441-0.224,0.958-0.288,1.553c-0.064,0.594-0.064,1.268,0,2.022c0.077,0.895,0.121,1.719,0.134,2.473
	c0,0.511-0.016,0.843-0.048,0.997c-0.032,0.153-0.118,0.3-0.259,0.441c-0.166,0.166-0.364,0.268-0.594,0.307
	c-0.23,0.038-0.447,0-0.652-0.115c-0.102-0.064-0.185-0.125-0.249-0.182s-0.122-0.17-0.172-0.336
	c-0.051-0.166-0.09-0.345-0.115-0.537c-0.026-0.192-0.045-0.499-0.057-0.92c-0.013-0.422-0.023-0.869-0.029-1.342
	c-0.007-0.473-0.01-1.125-0.01-1.955v-4.255l0.326-0.632c0.294-0.588,0.635-1.131,1.025-1.629s0.712-0.817,0.968-0.958
	c0.409-0.204,0.901-0.275,1.476-0.211s1.022,0.243,1.342,0.537c0.192,0.166,0.47,0.53,0.834,1.093
	c0.364,0.562,0.623,1.029,0.776,1.399c0.153,0.358,0.284,0.537,0.393,0.537c0.108,0,0.214-0.179,0.316-0.537
	c0.102-0.358,0.307-0.831,0.613-1.418c0.307-0.588,0.537-0.952,0.69-1.093c0.102-0.089,0.259-0.192,0.47-0.307
	s0.482-0.23,0.814-0.345s0.719-0.166,1.16-0.153s0.866,0.115,1.275,0.307c0.92,0.435,1.607,1.418,2.061,2.952
	c0.453,1.533,0.738,3.866,0.853,6.997c0.038,0.946,0.048,1.546,0.029,1.802c-0.019,0.256-0.093,0.511-0.221,0.767
	c-0.345,0.69-0.894,0.907-1.648,0.652c-0.32-0.103-0.543-0.24-0.671-0.412c-0.128-0.173-0.22-0.441-0.278-0.805
	c-0.057-0.364-0.105-0.987-0.144-1.869c-0.064-1.598-0.211-3.08-0.441-4.447s-0.486-2.262-0.767-2.683l-0.23-0.345l-0.288,0.364
	c-0.268,0.319-0.565,1.077-0.891,2.272s-0.649,2.46-0.968,3.795c-0.32,1.336-0.569,2.221-0.748,2.655
	c-0.243,0.588-0.623,0.952-1.141,1.093c-0.518,0.14-0.981,0.006-1.39-0.403c-0.243-0.243-0.396-0.534-0.46-0.872
	c-0.064-0.338-0.128-1.217-0.192-2.636c-0.051-1.112-0.16-2.013-0.326-2.703c-0.128-0.601-0.333-1.23-0.613-1.888
	C118.341,25.369,118.149,25.04,118.047,25.04z"/>
<path fill="#3B92CF" d="M135.95,21.781c0.882-0.204,1.939-0.249,3.172-0.134s2.188,0.345,2.866,0.69
	c0.37,0.192,0.824,0.55,1.361,1.073c0.345,0.345,0.578,0.617,0.7,0.815c0.121,0.198,0.246,0.515,0.374,0.949
	c0.281,0.92,0.329,1.808,0.144,2.664c-0.185,0.856-0.553,1.476-1.102,1.86l-0.498,0.364l-4.62,0.019
	c-3.067,0.013-4.619,0.051-4.658,0.115c-0.064,0.09,0.041,0.361,0.316,0.815s0.533,0.789,0.776,1.006
	c0.294,0.256,0.677,0.498,1.15,0.728c0.332,0.153,0.616,0.246,0.853,0.278c0.236,0.032,0.706,0.048,1.409,0.048
	c0.703-0.013,1.367-0.064,1.993-0.153c0.626-0.089,1.115-0.192,1.467-0.307c0.351-0.115,0.712-0.223,1.083-0.326
	c0.37-0.102,0.639-0.159,0.805-0.172c0.166-0.013,0.383,0.032,0.652,0.134c0.294,0.153,0.486,0.467,0.575,0.939
	c0.089,0.473,0.038,0.888-0.153,1.246c-0.103,0.217-0.364,0.441-0.786,0.671s-0.78,0.345-1.073,0.345
	c-0.077,0-0.361,0.045-0.853,0.134s-1.023,0.182-1.591,0.278c-0.569,0.096-1.24,0.147-2.013,0.153s-1.518-0.051-2.233-0.173
	c-0.716-0.122-1.441-0.374-2.176-0.757c-0.735-0.384-1.358-0.895-1.869-1.534c-0.422-0.524-0.719-0.978-0.892-1.361
	c-0.172-0.383-0.31-0.92-0.412-1.61c-0.103-0.677-0.125-1.396-0.067-2.156c0.057-0.76,0.182-1.415,0.374-1.965
	c0.179-0.537,0.463-1.089,0.853-1.658c0.39-0.568,0.808-1.064,1.256-1.486c0.499-0.46,0.942-0.798,1.332-1.016
	C134.854,22.081,135.35,21.909,135.95,21.781z M141.049,25.366c-0.294-0.217-0.661-0.406-1.102-0.566
	c-0.441-0.159-0.943-0.275-1.505-0.345c-0.562-0.07-1.153,0-1.773,0.211s-1.173,0.566-1.658,1.064
	c-0.333,0.345-0.607,0.726-0.824,1.141c-0.217,0.416-0.281,0.674-0.192,0.776c0.089,0.09,1.364,0.083,3.824-0.019
	s3.754-0.204,3.882-0.307c0.192-0.153,0.214-0.453,0.067-0.901C141.621,25.973,141.381,25.622,141.049,25.366z"/>
<path fill="#3B92CF" d="M146.301,22.625c0.115-0.128,0.22-0.208,0.316-0.24s0.233-0.035,0.412-0.01
	c0.409,0.077,0.677,0.23,0.805,0.46c0.128,0.23,0.198,0.697,0.211,1.399c0.038,0.831,0.086,1.278,0.144,1.342
	c0.057,0.064,0.367-0.14,0.93-0.613c1.559-1.329,3.112-1.942,4.658-1.84c1.878,0.128,3.258,1.368,4.14,3.719
	c0.166,0.435,0.268,0.799,0.307,1.093c0.038,0.294,0.057,0.85,0.057,1.668c0.013,1.202-0.07,2.441-0.249,3.719
	c-0.141,0.92-0.243,1.489-0.307,1.706c-0.064,0.217-0.192,0.409-0.383,0.575c-0.371,0.345-0.843,0.447-1.418,0.307
	c-0.575-0.141-0.927-0.441-1.054-0.901c-0.128-0.473-0.007-1.757,0.364-3.853c0.141-0.945,0.16-1.805,0.058-2.578
	c-0.103-0.773-0.323-1.406-0.661-1.898c-0.339-0.492-0.745-0.738-1.217-0.738c-0.741,0-1.543,0.339-2.406,1.016
	c-0.863,0.678-1.543,1.502-2.041,2.473c-0.166,0.332-0.345,0.588-0.537,0.767c-0.115,0.103-0.182,0.246-0.201,0.431
	s-0.023,0.776-0.01,1.773c0,0.013,0,0.032,0,0.057c0.013,1.188-0.019,1.955-0.096,2.3c-0.077,0.345-0.262,0.594-0.556,0.748
	c-0.792,0.421-1.425,0.192-1.898-0.69c-0.103-0.192-0.169-0.479-0.201-0.863c-0.032-0.383-0.061-1.189-0.086-2.415
	c-0.026-1.623,0.01-3.281,0.105-4.974c0.096-1.693,0.214-2.732,0.355-3.115C145.969,23.104,146.122,22.829,146.301,22.625z"/>
<path fill="#3B92CF" d="M164.185,21.11c0.268,0.128,0.441,0.316,0.518,0.565c0.077,0.249,0.092,0.505,0.048,0.767
	c-0.045,0.262-0.109,0.652-0.192,1.169c-0.083,0.518-0.131,1-0.144,1.447l-0.019,0.939l5.31-0.096l0.46,0.46
	c0.192,0.192,0.316,0.352,0.374,0.479c0.057,0.128,0.086,0.32,0.086,0.575c0,0.256-0.029,0.447-0.086,0.575
	c-0.058,0.128-0.182,0.288-0.374,0.479l-0.46,0.46l-5.31-0.096l-0.038,0.403c-0.038,0.345,0.019,0.866,0.173,1.562
	c0.153,0.697,0.326,1.243,0.518,1.639c0.409,0.83,0.901,1.23,1.476,1.198c0.575-0.032,1.074-0.482,1.495-1.351
	c0.179-0.383,0.415-0.722,0.709-1.016s0.543-0.441,0.748-0.441c0.511,0,0.92,0.307,1.227,0.92c0.192,0.371,0.29,0.655,0.297,0.853
	c0.006,0.198-0.08,0.521-0.259,0.968c-0.192,0.537-0.511,1.035-0.958,1.495c-0.447,0.46-0.965,0.831-1.553,1.112
	c-0.46,0.217-0.786,0.345-0.977,0.383c-0.192,0.038-0.518,0.045-0.978,0.019c-0.69-0.038-1.307-0.201-1.85-0.489
	s-0.977-0.652-1.303-1.093c-0.326-0.441-0.604-0.923-0.834-1.447s-0.4-1.051-0.508-1.581c-0.109-0.53-0.195-1.016-0.259-1.457
	s-0.115-0.814-0.153-1.121c-0.038-0.307-0.077-0.479-0.115-0.518c-0.064-0.077-0.364-0.14-0.901-0.192
	c-0.55-0.064-0.936-0.188-1.16-0.374c-0.224-0.185-0.336-0.482-0.336-0.892c0-0.422,0.112-0.725,0.336-0.911
	c0.223-0.185,0.629-0.303,1.217-0.355c0.588-0.051,0.914-0.115,0.978-0.192c0.025-0.025,0.073-0.255,0.144-0.69
	c0.07-0.434,0.166-0.917,0.288-1.447c0.121-0.53,0.278-1.051,0.47-1.562s0.45-0.885,0.776-1.121
	C163.39,20.902,163.764,20.893,164.185,21.11z"/>
<g>
	<path fill="#6DBE46" d="M35.283,17.94c-0.416,0.197-0.852,0.329-1.286,0.475c-0.338,0.114-0.692,0.361-1.051,0.171
		c-1.037-0.547,0.335-1.684,0.808-2.032c0.493-0.359,1.006-1.208,1.527-1.39c0.578-0.202,1.191,0.002,1.419,0.573
		c0.137,0.343,0.055,0.802-0.161,1.171C36.271,17.368,35.805,17.693,35.283,17.94z"/>
	<path fill="#6DBE46" d="M13.891,15.124c-0.205-0.352-0.284-0.791-0.153-1.119c0.217-0.546,0.802-0.741,1.355-0.548
		c0.497,0.174,0.987,0.985,1.458,1.328c0.452,0.332,1.762,1.418,0.772,1.94c-0.343,0.181-0.681-0.055-1.003-0.164
		c-0.415-0.14-0.831-0.266-1.228-0.454C14.592,15.872,14.146,15.562,13.891,15.124z"/>
	<path fill="#6DBE46" d="M31.88,16.811c-0.171-0.764-0.424-1.516-0.661-2.26c-0.656-2.052-2.29-3.978-4.493-4.389
		c-0.77-0.143-1.564-0.087-2.331,0.081c-0.128,0.028-0.255,0.059-0.38,0.093c-1.022,0.275-2.115,0.678-3.044,1.182
		c-1.968,1.067-3.095,3.598-3.2,5.76c-0.02,0.418,0.005,0.84,0.071,1.266c0.431,0.225,0.966,0.447,1.341,0.78
		c-0.023-0.085-0.049-0.168-0.069-0.256c-0.347-1.529-0.162-2.962,0.555-4.3c0.462-0.844,2.154,0.081,2.905-0.248
		c0.642-0.281,0.372-1.488,1.042-1.581c0.249-0.035,0.491,0.078,0.719,0.184c0.868,0.404,1.764,0.748,2.68,1.027
		c0.325,0.099,0.692,0.186,0.989,0.022c0.218-0.121,0.351-0.359,0.402-0.603c0.041-0.194-0.054-0.646,0.09-0.795
		c0.216-0.224,0.555,0.186,0.671,0.36c0.655,0.983,1.031,2.088,1.278,3.235c0.173,0.93,0.197,1.7,0.07,2.309
		c-0.126,0.61-0.448,1.268-0.966,1.976c-0.662,0.902-1.301,1.54-1.919,1.914c-0.618,0.375-1.543,0.682-2.776,0.922
		c-0.275,0.052-0.613,0.042-1.012-0.028c0.142,0.123,0.277,0.267,0.398,0.444c0.134,0.196,0.132,0.47,0.032,0.694
		c1.6,0.128,3.215-0.251,4.608-1.218c1.773-1.232,2.949-3.291,3.064-5.451C31.965,17.474,31.944,17.101,31.88,16.811z"/>
	<g>
		<path fill="#6DBE46" d="M22.784,16.561c-0.288,0.603,0.277,1.276,0.858,1.403c0.61,0.134,1.369-0.266,1.188-0.979
			c-0.061-0.241-0.221-0.448-0.411-0.608C23.861,15.908,23.147,15.8,22.784,16.561z"/>
	</g>
	<g>
		<path fill="#6DBE46" d="M26.949,17.435c0.339,0.115,0.697,0.06,0.938-0.21c0.088-0.099,0.152-0.225,0.15-0.357
			c-0.002-0.137-0.194-0.298-0.264-0.416c-0.145-0.245-0.223-0.451-0.517-0.514c-0.256-0.055-0.565,0.07-0.712,0.287
			C26.376,16.474,26.067,17.137,26.949,17.435z"/>
	</g>
	<path fill="#6DBE46" d="M24.673,20.439c-0.179,0.007-0.249,0.237-0.104,0.343c0.316,0.232,0.654,0.432,1.022,0.563
		c0.54,0.192,1.155,0.223,1.676-0.015c0.599-0.273,0.962-0.829,1.18-1.429c0.058-0.16-0.107-0.312-0.26-0.237
		c-0.312,0.152-0.802,0.351-1.461,0.499C25.856,20.359,25.132,20.422,24.673,20.439z"/>
</g>
<path fill="#F05941" d="M12.076,20.281c0.143-0.018,0.349-0.036,0.618-0.054c0.771-0.071,1.537-0.098,2.299-0.081
	c0.762,0.018,1.483,0.085,2.164,0.202s1.384,0.381,2.11,0.793c0.726,0.413,1.438,0.959,2.137,1.64
	c1.2,1.219,2.052,2.465,2.554,3.737c0.502,1.273,0.699,2.68,0.591,4.221c-0.072,1.147-0.197,2.052-0.376,2.715
	c-0.287,1.058-0.9,2.079-1.841,3.065s-2.093,1.819-3.455,2.5c-0.771,0.376-1.327,0.614-1.667,0.713
	c-0.341,0.098-0.905,0.157-1.694,0.175c-2.223,0.108-4.244-0.403-6.062-1.532c-1.819-1.129-3.123-2.679-3.912-4.651
	c-0.233-0.591-0.372-1.093-0.417-1.505c-0.045-0.412-0.067-1.353-0.067-2.823v-3.065l0.753-1.559
	c0.287-0.591,0.596-1.12,0.928-1.586C7.07,22.72,7.38,22.335,7.666,22.03c0.287-0.305,0.609-0.569,0.968-0.793
	c0.358-0.224,0.663-0.39,0.914-0.497c0.251-0.108,0.551-0.197,0.901-0.269c0.349-0.071,0.609-0.116,0.78-0.134
	c0.17-0.018,0.407-0.036,0.712-0.054C12.014,20.281,12.058,20.281,12.076,20.281z M20.33,24.054
	c-0.988-0.906-2.05-1.408-3.187-1.506c-1.138-0.097-2.17,0.215-3.097,0.936c-0.541,0.402-0.982,0.938-1.323,1.61
	s-0.579,1.266-0.714,1.781c-0.136,0.516-0.346,0.937-0.63,1.263s-0.639,0.423-1.064,0.289c-0.354-0.111-0.784-0.46-1.287-1.046
	c-0.504-0.586-0.827-1.109-0.968-1.569c-0.231-0.669-0.491-0.712-0.778-0.127c-0.515,0.981-0.684,2.511-0.506,4.591
	c0.004,0.235,0.02,0.473,0.048,0.716c0.188,1.305,0.501,2.331,0.942,3.079c0.44,0.748,1.16,1.474,2.159,2.176
	c1.277,0.894,2.407,1.45,3.39,1.667c0.983,0.218,2.341,0.209,4.076-0.025c0.57-0.08,1.259-0.396,2.068-0.947s1.47-1.148,1.983-1.792
	c1.256-1.604,1.771-3.493,1.544-5.667C22.76,27.308,21.875,25.499,20.33,24.054z"/>
<g>
	<path fill="#F05941" d="M9.97,30.608c-0.079,0.664,0.447,1.186,1.025,1.381c0.275,0.093,0.563,0.056,0.844,0.051
		c0.652-0.013,1.197-0.535,1.197-1.197c0-0.643-0.544-1.21-1.197-1.197c-0.1,0.002-0.079-0.235-0.673-0.235
		C10.456,29.411,10.047,29.961,9.97,30.608L9.97,30.608z"/>
</g>
<g>
	<path fill="#F05941" d="M17.884,30.648c0.582,0,1.104-0.272,1.335-0.813c0.084-0.198,0.117-0.426,0.045-0.628
		c-0.075-0.21-0.454-0.358-0.623-0.503c-0.352-0.302-0.579-0.578-1.065-0.522c-0.424,0.049-0.834,0.402-0.946,0.814
		C16.5,29.468,16.37,30.649,17.884,30.648z"/>
</g>
<path fill="#F05941" d="M12.723,34.406c-0.089-0.011-0.169,0.005-0.209,0.088c-0.054,0.112,0.058,0.23,0.159,0.302
	c0.75,0.533,1.586,0.95,2.534,0.871c0.528-0.044,1.04-0.228,1.472-0.535c0.303-0.215,1.03-0.806,0.887-1.24
	c-0.044-0.132-0.164-0.235-0.301-0.258c-0.212-0.036-0.408,0.107-0.583,0.232c-0.478,0.344-1.042,0.685-1.619,0.824
	c-0.448,0.107-0.92,0.092-1.37,0.003c-0.231-0.046-0.457-0.112-0.677-0.195C12.946,34.472,12.829,34.42,12.723,34.406z"/>
<path fill="#F05941" d="M3.718,25.697c-0.193-0.078-0.389-0.13-0.557-0.157c-0.762-0.122-1.258,0.273-1.601,0.932
	c-0.576,1.109-0.621,2.442-0.516,3.661c0.051,0.594,0.054,0.908,0.532,1.306c0.646,0.538,3.113,1.562,3.077-0.131
	c-0.017-0.787,0.043-1.574,0.007-2.361c-0.032-0.707-0.204-1.38-0.055-2.085C4.726,26.292,4.233,25.904,3.718,25.697z"/>
<path fill="#F05941" d="M25.721,26.522c0.361-0.169,0.764-0.25,1.037-0.199c0.706,0.133,1.047,1.534,1.201,2.134
	c0.272,1.063,0.658,2.764-0.412,3.497c-0.632,0.433-2.636,1.15-2.601-0.319c0.017-0.725,0.099-3.39-0.036-4.039
	C24.817,27.145,25.231,26.752,25.721,26.522z"/>
<path fill="none" stroke="#F05941" stroke-width="2" stroke-linecap="round" stroke-miterlimit="10" d="M3.561,27.927
	c0-5.002,3.86-10.218,9.842-10.218S25,22.979,25.667,27.927"/>
</svg>
